<svg width="36" height="36" viewBox="0 0 36 36" fill="none" xmlns="http://www.w3.org/2000/svg">
<rect width="36" height="36" rx="18" fill="#C43FC4" fill-opacity="0.75"/>
<path d="M28.5784 12.4955C28.5737 12.9132 28.5152 13.3187 28.4097 13.7054L22.235 7.60552C22.6394 7.49055 23.0651 7.42652 23.5045 7.42164L23.4888 6C20.0547 6.0381 17.2707 8.85716 17.2828 12.2825L17.2883 17.2882L12.2842 17.2827C12.2766 17.2827 12.2696 17.2827 12.262 17.2827C8.84522 17.2827 6.03796 20.0623 6 23.4887L7.42164 23.5045C7.42628 23.0862 7.48434 22.6804 7.58907 22.2935L13.7638 28.3932C13.3595 28.5089 12.9343 28.5735 12.4954 28.5783L12.5112 30C15.9292 29.962 18.7132 27.1445 18.7174 23.7175L18.7116 18.7117L23.7192 18.7173C27.1444 18.7132 29.962 15.9292 30 12.5113L28.5784 12.4955ZM18.71 17.2898L18.7069 14.4782L21.5564 17.2931L18.71 17.2898ZM12.2638 18.7044C12.2694 18.7044 12.2752 18.7045 12.2809 18.7045L12.4184 18.7046L17.2954 23.5224L17.2956 23.7175C17.2949 24.3089 17.187 24.8768 16.9906 25.4027L10.5355 19.0258C11.073 18.8184 11.6558 18.7044 12.2638 18.7044ZM15.1374 27.7518L8.2108 20.9092C8.49623 20.4726 8.85001 20.0848 9.25629 19.7606L16.2716 26.6908C15.9525 27.1017 15.5692 27.4604 15.1374 27.7518ZM17.2931 21.5217L14.4437 18.7068L17.2899 18.7101L17.2931 21.5217ZM23.5818 17.2954L18.7048 12.4776L18.7045 12.2792C18.7024 11.687 18.8087 11.1185 19.0042 10.5921L25.4596 16.9693C24.9183 17.1791 24.3313 17.2948 23.7192 17.2956L23.5818 17.2954ZM26.7384 16.234L19.7228 9.30349C20.042 8.89323 20.426 8.53519 20.8588 8.24444L27.7855 15.0872C27.4994 15.5227 27.1451 15.91 26.7384 16.234Z" fill="white"/>
</svg>
