<svg width="36" height="36" viewBox="0 0 36 36" fill="none" xmlns="http://www.w3.org/2000/svg">
<rect width="36" height="36" rx="18" fill="#EB6C34" fill-opacity="0.75"/>
<g clip-path="url(#clip0)">
<path d="M29.3187 11.726C29.2736 11.7244 28.3467 11.6931 26.986 11.7232V8.93345C26.986 8.52221 26.6349 8.19604 26.2214 8.23002C23.5084 8.45651 20.0567 9.65534 18 11.8419C15.9433 9.65534 12.4916 8.45651 9.77859 8.23002C9.36588 8.19642 9.01398 8.52112 9.01398 8.93345V11.7986C8.24089 11.7695 7.50965 11.7489 6.72682 11.7259C6.332 11.7134 6 12.0314 6 12.4314V25.2865C6 25.658 6.28786 25.9659 6.65849 25.9908C9.4664 26.1798 14.1699 26.201 17.7231 27.7165C18.0398 27.8518 18.324 27.6964 18.277 27.7165C21.8301 26.2011 26.5328 26.1799 29.3416 25.9908C29.7122 25.9659 30.0001 25.658 30.0001 25.2865V12.4314C30 12.0511 29.6988 11.7392 29.3187 11.726ZM25.5743 9.72738V21.8256C23.5387 22.281 20.959 23.2527 18.7059 25.3129C18.7059 24.6915 18.7059 13.5155 18.7059 13.1794C20.2504 11.2524 23.1753 10.0909 25.5743 9.72738ZM10.4257 9.72738C12.8247 10.0909 15.7496 11.2524 17.2941 13.1794V25.3129C15.041 23.2527 12.4613 22.281 10.4257 21.8256V9.72738ZM7.41176 24.6223V13.1584C7.91722 13.1734 8.45784 13.1903 9.01398 13.2115V22.401C9.01398 22.7406 9.25586 23.0321 9.58965 23.0947C11.2015 23.3973 13.2975 24.0539 15.251 25.4679C12.4639 24.8428 9.54664 24.7423 7.41176 24.6223ZM28.5882 24.6223C26.4568 24.7421 23.5372 24.8425 20.749 25.4679C22.7025 24.0539 24.7985 23.3973 26.4103 23.0947C26.7441 23.0321 26.986 22.7406 26.986 22.401V13.1354C27.6357 13.1209 28.189 13.1207 28.5882 13.1243V24.6223H28.5882Z" fill="white"/>
<path d="M15.4638 14.8055C14.9171 14.4246 13.9746 13.957 12.9687 13.7871C12.5845 13.7218 12.22 13.9811 12.1551 14.3655C12.0901 14.7498 12.3491 15.1141 12.7335 15.1791C13.5101 15.3103 14.255 15.6838 14.6568 15.9638C14.9766 16.1866 15.4166 16.1081 15.6395 15.7881C15.8623 15.4683 15.7837 15.0283 15.4638 14.8055Z" fill="white"/>
<path d="M15.3932 18.7805C14.8902 18.4734 13.9063 17.9344 12.9687 17.7759C12.5845 17.7108 12.22 17.9699 12.1551 18.3543C12.0901 18.7387 12.3491 19.103 12.7335 19.1679C13.4639 19.2913 14.3222 19.7807 14.6573 19.9854C14.9904 20.1887 15.4247 20.0832 15.6277 19.7509C15.8309 19.4182 15.7259 18.9838 15.3932 18.7805Z" fill="white"/>
<path d="M21.3431 15.9638C21.745 15.6838 22.4899 15.3103 23.2665 15.1791C23.6509 15.1141 23.9098 14.7498 23.8449 14.3655C23.78 13.981 23.4156 13.7217 23.0313 13.7871C22.0254 13.957 21.0829 14.4246 20.5361 14.8055C20.2163 15.0283 20.1376 15.4683 20.3605 15.7881C20.5834 16.1082 21.0236 16.1865 21.3431 15.9638Z" fill="white"/>
<path d="M23.0313 17.776C22.0937 17.9344 21.1099 18.4734 20.6069 18.7806C20.2742 18.9838 20.1692 19.4182 20.3724 19.7509C20.5756 20.0836 21.01 20.1886 21.3427 19.9854C21.6778 19.7807 22.5361 19.2914 23.2665 19.1679C23.6509 19.103 23.9099 18.7388 23.845 18.3544C23.78 17.9699 23.4156 17.7106 23.0313 17.776Z" fill="white"/>
</g>
<defs>
<clipPath id="clip0">
<rect width="24" height="24" fill="white" transform="translate(6 6)"/>
</clipPath>
</defs>
</svg>
