<svg width="36" height="36" viewBox="0 0 36 36" fill="none" xmlns="http://www.w3.org/2000/svg">
<rect width="36" height="36" rx="18" fill="#35C45E" fill-opacity="0.75"/>
<path d="M28.4988 24.5969C28.2943 24.2755 21.7182 13.9418 21.5156 13.6234V10.2188C22.6787 10.2188 23.625 9.27248 23.625 8.10938C23.625 6.94627 22.6787 6 21.5156 6H14.4843C13.3212 6 12.375 6.94627 12.375 8.10938C12.375 9.27248 13.3212 10.2188 14.4843 10.2188V13.6234L7.50118 24.5969C6.01008 26.9401 7.69022 30 10.4672 30H25.5328C28.3102 30 29.9896 26.9397 28.4988 24.5969ZM15.7807 14.2056C15.8525 14.0928 15.8906 13.9619 15.8906 13.8281V10.2188C16.2789 10.2188 16.5938 9.90394 16.5938 9.51562C16.5938 9.12731 16.2789 8.8125 15.8906 8.8125H14.4844C14.0967 8.8125 13.7813 8.49708 13.7813 8.10938C13.7813 7.72167 14.0967 7.40625 14.4844 7.40625H21.5156C21.9033 7.40625 22.2188 7.72167 22.2188 8.10938C22.2188 8.49708 21.9033 8.8125 21.5156 8.8125H20.1094C19.7211 8.8125 19.4063 9.12731 19.4063 9.51562C19.4063 9.90394 19.7211 10.2188 20.1094 10.2188V13.8281C20.1094 13.9619 20.1475 14.0928 20.2193 14.2056L22.131 17.2097C20.4948 16.8596 18.7541 17.1678 17.3023 18.1357L15.1052 19.6005C14.1307 20.2502 12.9788 20.5253 11.8396 20.3989L15.7807 14.2056ZM25.5328 28.5938H10.4672C8.80079 28.5938 7.79302 26.7576 8.68758 25.3519L11.0202 21.6864C11.4713 21.7858 11.9275 21.8358 12.3818 21.8358C13.614 21.8358 14.8305 21.4737 15.8851 20.7705L18.0822 19.3058C19.6974 18.229 21.772 18.2013 23.4113 19.2217L27.3123 25.3519C28.2071 26.7578 27.1989 28.5938 25.5328 28.5938Z" fill="white"/>
<path d="M13.7812 22.9688C12.6181 22.9688 11.6719 23.915 11.6719 25.0781C11.6719 26.2412 12.6181 27.1875 13.7812 27.1875C14.9444 27.1875 15.8906 26.2412 15.8906 25.0781C15.8906 23.915 14.9444 22.9688 13.7812 22.9688ZM13.7812 25.7812C13.3935 25.7812 13.0781 25.4658 13.0781 25.0781C13.0781 24.6904 13.3935 24.375 13.7812 24.375C14.169 24.375 14.4844 24.6904 14.4844 25.0781C14.4844 25.4658 14.169 25.7812 13.7812 25.7812Z" fill="white"/>
<path d="M20.8125 20.1562C19.6494 20.1562 18.7031 21.1025 18.7031 22.2656C18.7031 23.4287 19.6494 24.375 20.8125 24.375C21.9756 24.375 22.9219 23.4287 22.9219 22.2656C22.9219 21.1025 21.9757 20.1562 20.8125 20.1562ZM20.8125 22.9688C20.4248 22.9688 20.1094 22.6533 20.1094 22.2656C20.1094 21.8779 20.4248 21.5625 20.8125 21.5625C21.2002 21.5625 21.5156 21.8779 21.5156 22.2656C21.5156 22.6533 21.2002 22.9688 20.8125 22.9688Z" fill="white"/>
<path d="M18 25.7812C18.3883 25.7812 18.7031 25.4665 18.7031 25.0781C18.7031 24.6898 18.3883 24.375 18 24.375C17.6117 24.375 17.2969 24.6898 17.2969 25.0781C17.2969 25.4665 17.6117 25.7812 18 25.7812Z" fill="white"/>
<path d="M23.625 25.7812C24.0133 25.7812 24.3281 25.4665 24.3281 25.0781C24.3281 24.6898 24.0133 24.375 23.625 24.375C23.2367 24.375 22.9219 24.6898 22.9219 25.0781C22.9219 25.4665 23.2367 25.7812 23.625 25.7812Z" fill="white"/>
<path d="M20.8125 27.1875C21.2008 27.1875 21.5156 26.8727 21.5156 26.4844C21.5156 26.096 21.2008 25.7812 20.8125 25.7812C20.4242 25.7812 20.1094 26.096 20.1094 26.4844C20.1094 26.8727 20.4242 27.1875 20.8125 27.1875Z" fill="white"/>
</svg>
