<svg width="36" height="36" viewBox="0 0 36 36" fill="none" xmlns="http://www.w3.org/2000/svg">
<rect width="36" height="36" rx="18" fill="#358DC4" fill-opacity="0.75"/>
<g clip-path="url(#clip0)">
<path d="M6.09113 13.7509L6.09114 15.8605L3.98155 15.8605C3.59319 15.8605 3.2784 16.1753 3.27837 16.5637L3.2784 19.3764C3.27837 19.7644 3.59329 20.0795 3.98159 20.0796L6.0912 20.0796L6.09117 22.1891C6.09113 23.3523 7.03754 24.2987 8.20069 24.2987L9.02356 24.2987C9.31083 25.1135 10.0899 25.705 11.0134 25.705L12.4198 25.705C12.8078 25.7051 13.123 25.3902 13.123 25.0018L13.1229 20.0796L22.8174 20.0795L22.8174 25.0018C22.8174 25.3899 23.1323 25.705 23.5206 25.705L24.9269 25.705C25.8436 25.705 26.6252 25.1171 26.9155 24.2986L27.7396 24.2986C28.9028 24.2986 29.8492 23.3523 29.8492 22.1891L29.8492 20.0795L31.9588 20.0795C32.3471 20.0795 32.6619 19.7647 32.6619 19.3763L32.662 16.5636C32.662 16.1755 32.3471 15.8604 31.9588 15.8604L29.8492 15.8604V13.7508C29.8492 12.5877 28.9028 11.6413 27.7397 11.6413L26.9168 11.6412C26.6295 10.8263 25.8504 10.2349 24.927 10.2349L23.5206 10.2349C23.1325 10.2349 22.8174 10.5497 22.8174 10.938V15.8604L13.123 15.8604V10.938C13.123 10.55 12.8081 10.2349 12.4198 10.2349L11.0134 10.2349C10.0967 10.2348 9.31511 10.8228 9.02482 11.6412H8.20069C7.03744 11.6414 6.09114 12.5877 6.09113 13.7509ZM4.68474 18.6731L4.68473 17.2668L6.09114 17.2667L6.09117 18.6731L4.68474 18.6731ZM31.2555 17.2668L31.2555 18.6732L29.8492 18.6732V17.2668H31.2555ZM27.7396 13.0478C28.1274 13.0477 28.4428 13.3632 28.4428 13.7509L28.4428 22.1891C28.4428 22.5768 28.1274 22.8923 27.7396 22.8923L27.0365 22.8923L27.0364 13.0477L27.7396 13.0478ZM24.2238 11.6413L24.9269 11.6414C25.3157 11.6414 25.6301 11.9558 25.6301 12.3445L25.6301 23.5954C25.6301 23.9841 25.3156 24.2986 24.9269 24.2986L24.2238 24.2986C24.2238 23.8608 24.2237 11.8618 24.2238 11.6413ZM22.8174 17.2668L22.8174 18.6732L13.1229 18.6732L13.1229 17.2668L22.8174 17.2668ZM11.0134 11.6414H11.7166L11.7166 19.3762L11.7166 19.3763L11.7166 19.3764L11.7166 24.2985L11.0135 24.2986C10.6249 24.2986 10.3102 23.9841 10.3103 23.5954L10.3103 12.3444C10.3102 11.9558 10.6247 11.6413 11.0134 11.6414ZM8.20069 13.0477H8.90383L8.90387 22.8923L8.20068 22.8922C7.81291 22.8922 7.49757 22.5768 7.4975 22.189L7.4975 13.7509C7.49747 13.3631 7.81295 13.0477 8.20069 13.0477Z" fill="white"/>
</g>
<defs>
<clipPath id="clip0">
<rect width="24" height="24" fill="white" transform="translate(17.9706 34.9411) rotate(-135)"/>
</clipPath>
</defs>
</svg>
