<svg width="36" height="36" viewBox="0 0 36 36" fill="none" xmlns="http://www.w3.org/2000/svg">
<rect width="36" height="36" rx="18" fill="#620EC4" fill-opacity="0.75"/>
<g clip-path="url(#clip0)">
<path d="M27.7811 11.0732C27.7807 11.0654 27.7799 11.0577 27.7786 11.05C27.7486 11.0071 27.7117 10.9703 27.6808 10.9283C27.4567 10.623 27.2195 10.3292 26.9692 10.0468C26.9006 9.96968 26.832 9.89337 26.7617 9.81791C26.5039 9.54186 26.2336 9.27861 25.9506 9.02828C25.8983 8.98196 25.8494 8.93399 25.7971 8.88852C25.0998 8.29115 24.3363 7.77561 23.5216 7.35211C23.489 7.33497 23.4548 7.32041 23.4213 7.30322C23.0585 7.11885 22.6865 6.95312 22.3067 6.80678C22.2209 6.77593 22.1429 6.74674 22.0615 6.72102C21.7237 6.5993 21.3807 6.49269 21.0326 6.40121C20.9297 6.37378 20.8268 6.3455 20.7222 6.32148C20.3793 6.24175 20.0364 6.18087 19.6856 6.13113C19.5793 6.11571 19.4747 6.09511 19.3675 6.08225C18.4643 5.97248 17.5512 5.97248 16.6479 6.08225C16.5407 6.09511 16.4361 6.11571 16.3298 6.13113C15.9791 6.18087 15.6327 6.24175 15.2932 6.32148C15.1886 6.3455 15.0857 6.37378 14.9828 6.40121C14.6324 6.49264 14.2895 6.59925 13.9539 6.72102C13.8682 6.75016 13.7902 6.77935 13.7087 6.80678C13.329 6.95312 12.9569 7.1188 12.5941 7.30322C12.5607 7.32035 12.5264 7.33492 12.4938 7.35211C11.6764 7.77516 10.9103 8.29064 10.2105 8.88852C10.1582 8.93393 10.1094 8.98196 10.0571 9.02828C9.77126 9.27977 9.50088 9.54301 9.24598 9.81791C9.17569 9.89337 9.10707 9.96968 9.03849 10.0468C8.78756 10.3286 8.55034 10.6224 8.32688 10.9282C8.29603 10.9702 8.25916 11.0071 8.22912 11.0499C8.2252 11.0574 8.22173 11.0652 8.21882 11.0731C5.26153 15.2175 5.26153 20.7824 8.21882 24.9268C8.22173 24.9347 8.22515 24.9424 8.22912 24.9499C8.25911 24.9928 8.29598 25.0296 8.32688 25.0716C8.55039 25.3769 8.78756 25.6707 9.03849 25.9531C9.10707 26.0302 9.17569 26.1065 9.24598 26.182C9.50435 26.458 9.77468 26.7213 10.0571 26.9716C10.1094 27.0179 10.1582 27.0659 10.2105 27.1114C10.9078 27.7088 11.6713 28.2243 12.486 28.6478C12.5187 28.6649 12.5529 28.6795 12.5864 28.6967C12.9492 28.8811 13.3212 29.0468 13.701 29.1931C13.7867 29.224 13.8648 29.2532 13.9462 29.2789C14.284 29.4006 14.627 29.5072 14.9751 29.5987C15.078 29.6261 15.1808 29.6544 15.2854 29.6784C15.6284 29.7582 15.9713 29.819 16.322 29.8688C16.4283 29.8842 16.5329 29.9048 16.6401 29.9177C17.5434 30.0274 18.4565 30.0274 19.3598 29.9177C19.467 29.9048 19.5716 29.8842 19.6779 29.8688C20.0286 29.819 20.375 29.7582 20.7145 29.6784C20.8191 29.6544 20.922 29.6261 21.0249 29.5987C21.3758 29.5073 21.7188 29.4007 22.0537 29.2789C22.1395 29.2498 22.2175 29.2206 22.299 29.1931C22.6787 29.0468 23.0508 28.8811 23.4136 28.6967C23.447 28.6796 23.4813 28.665 23.5139 28.6478C24.3286 28.2242 25.0921 27.7088 25.7894 27.1114C25.8417 27.0659 25.8906 27.0179 25.9429 26.9716C26.2287 26.7207 26.4991 26.4575 26.754 26.182C26.8243 26.1065 26.8929 26.0302 26.9615 25.9531C27.2124 25.6707 27.4496 25.3769 27.6731 25.0716C27.7039 25.0296 27.7408 24.9928 27.7708 24.9499C27.7747 24.9424 27.7782 24.9347 27.7811 24.9268C30.7384 20.7824 30.7384 15.2176 27.7811 11.0732ZM26.8029 12.6954C27.6228 14.0458 28.118 15.5682 28.2492 17.1427H23.1135C23.0506 16.121 22.8898 15.1078 22.6334 14.1169C24.0841 13.8453 25.4883 13.3665 26.8029 12.6954ZM20.1855 7.94797C20.2335 7.95913 20.2798 7.97455 20.3278 7.9857C20.6348 8.05774 20.9392 8.14003 21.2367 8.24292C21.2821 8.25834 21.3267 8.27638 21.3713 8.29265C21.6663 8.39554 21.9569 8.50958 22.2416 8.63562C22.2913 8.65878 22.3402 8.68451 22.3899 8.70766C22.6626 8.83743 22.9289 8.97774 23.189 9.12866L23.3605 9.2324C23.6074 9.38331 23.8475 9.54477 24.0807 9.71684C24.1407 9.76054 24.2007 9.80259 24.2599 9.85057C24.4885 10.022 24.7074 10.2058 24.9166 10.4019C24.9715 10.4516 25.0281 10.5005 25.0821 10.5519C25.3016 10.7603 25.5108 10.9806 25.7132 11.2087C25.7389 11.2387 25.7663 11.2661 25.792 11.2944C24.6311 11.8477 23.4012 12.2428 22.1353 12.4691C21.5488 10.8568 20.7741 9.31946 19.8272 7.88889C19.9463 7.91029 20.0681 7.9223 20.1855 7.94797ZM14.6056 17.1426C14.6732 16.2149 14.8312 15.296 15.0772 14.399C16.0486 14.5144 17.0261 14.5716 18.0043 14.5704C18.9835 14.5701 19.9619 14.5115 20.934 14.3947C21.1796 15.2932 21.3367 16.2135 21.403 17.1426H14.6056ZM21.403 18.8574C21.3354 19.7851 21.1775 20.704 20.9314 21.601C19.96 21.4856 18.9826 21.4284 18.0043 21.4296C17.0252 21.4285 16.0469 21.4857 15.0746 21.601C14.8293 20.7039 14.6722 19.785 14.6056 18.8574H21.403ZM18.0043 8.2704C18.98 9.65329 19.7825 11.1506 20.3938 12.7288C19.6001 12.8131 18.8025 12.8555 18.0043 12.8557C17.207 12.8548 16.4102 12.8122 15.6173 12.728C16.2294 11.1508 17.0309 9.65399 18.0043 8.2704ZM10.2964 11.2078C10.4979 10.9797 10.7079 10.7594 10.9274 10.551C10.9814 10.4996 11.0381 10.4507 11.0929 10.401C11.3044 10.2084 11.5233 10.0246 11.7497 9.84966C11.8088 9.8042 11.8688 9.76391 11.9289 9.71593C12.1621 9.54447 12.4022 9.38296 12.6491 9.23149L12.8205 9.12775C13.0806 8.97573 13.347 8.83537 13.6196 8.70676C13.6693 8.6836 13.7182 8.65788 13.768 8.63472C14.0526 8.50611 14.3433 8.39207 14.6382 8.29175C14.6828 8.27547 14.724 8.25744 14.7728 8.24201C15.0703 8.14254 15.373 8.06025 15.6817 7.9848C15.7297 7.97364 15.776 7.95822 15.8248 7.94792C15.9423 7.9222 16.0641 7.91019 16.1832 7.88874C15.236 9.31956 14.461 10.8572 13.8743 12.4698C12.6083 12.2435 11.3784 11.8484 10.2175 11.2951C10.2432 11.2652 10.2707 11.2378 10.2964 11.2078ZM9.20579 12.6954C10.5201 13.3664 11.9239 13.8452 13.3744 14.1169C13.1182 15.1079 12.9577 16.1211 12.8951 17.1427H7.7594C7.89072 15.5682 8.38586 14.0458 9.20579 12.6954ZM9.20579 23.3047C8.38581 21.9543 7.89067 20.4319 7.7594 18.8574H12.8951C12.958 19.879 13.1188 20.8922 13.3753 21.8831C11.9245 22.1548 10.5204 22.6335 9.20579 23.3047ZM15.8231 28.052C15.7751 28.0409 15.7288 28.0255 15.6808 28.0143C15.3739 27.9423 15.0695 27.86 14.772 27.7571C14.7265 27.7417 14.6819 27.7236 14.6373 27.7074C14.3424 27.6045 14.0518 27.4904 13.7671 27.3644C13.7173 27.3412 13.6684 27.3155 13.6187 27.2923C13.3461 27.1626 13.0797 27.0223 12.8196 26.8714L12.6482 26.7676C12.4012 26.6167 12.1612 26.4552 11.928 26.2832C11.8679 26.2395 11.8079 26.1974 11.7488 26.1494C11.5201 25.978 11.3012 25.7942 11.092 25.5981C11.0371 25.5484 10.9805 25.4995 10.9265 25.4481C10.707 25.2397 10.4978 25.0194 10.2955 24.7913C10.2698 24.7613 10.2423 24.7339 10.2166 24.7056C11.3776 24.1523 12.6074 23.7572 13.8734 23.531C14.4598 25.1432 15.2345 26.6806 16.1814 28.1111C16.0623 28.0898 15.9406 28.0778 15.8231 28.052ZM18.0043 27.7297C17.0286 26.3468 16.2261 24.8494 15.6147 23.2712C17.2026 23.1003 18.8042 23.1003 20.3921 23.2712L20.3912 23.2721C19.7792 24.8492 18.9777 26.346 18.0043 27.7297ZM25.7122 24.7922C25.5107 25.0203 25.3007 25.2406 25.0812 25.449C25.0272 25.5004 24.9706 25.5493 24.9157 25.599C24.7042 25.7922 24.4853 25.976 24.259 26.1503C24.1998 26.1958 24.1398 26.2404 24.0798 26.2841C23.8466 26.4555 23.6065 26.6171 23.3596 26.7685L23.1881 26.8723C22.9286 27.0237 22.6622 27.164 22.389 27.2932C22.3393 27.3164 22.2904 27.3421 22.2407 27.3653C21.956 27.4939 21.6654 27.6079 21.3704 27.7083C21.3259 27.7245 21.2847 27.7426 21.2358 27.758C20.9383 27.8575 20.6356 27.9398 20.327 28.0152C20.279 28.0264 20.2327 28.0418 20.1838 28.0521C20.0663 28.0778 19.9446 28.0898 19.8254 28.1113C20.7723 26.6807 21.547 25.1433 22.1335 23.5311C23.3994 23.7574 24.6293 24.1524 25.7902 24.7057C25.7654 24.7348 25.738 24.7622 25.7122 24.7922ZM26.8029 23.3047C25.4886 22.6336 24.0847 22.1549 22.6342 21.8831C22.8904 20.8922 23.0509 19.879 23.1135 18.8574H28.2492C28.1179 20.4318 27.6228 21.9542 26.8029 23.3047Z" fill="white"/>
</g>
<defs>
<clipPath id="clip0">
<rect width="24" height="24" fill="white" transform="translate(6 6)"/>
</clipPath>
</defs>
</svg>
