<svg width="24" height="24" viewBox="0 0 24 24" fill="none" xmlns="http://www.w3.org/2000/svg">
<rect width="24" height="24" rx="12" fill="#192391" fill-opacity="0.05"/>
<path d="M16.3335 11.5318L10.9934 6.19171C10.8699 6.0681 10.705 6 10.5292 6C10.3534 6 10.1885 6.0681 10.065 6.19171L9.67172 6.58487C9.41582 6.84107 9.41582 7.25745 9.67172 7.51326L14.156 11.9975L9.66674 16.4867C9.54323 16.6104 9.47504 16.7751 9.47504 16.9508C9.47504 17.1267 9.54323 17.2915 9.66674 17.4152L10.06 17.8083C10.1836 17.9319 10.3484 18 10.5242 18C10.7 18 10.8649 17.9319 10.9884 17.8083L16.3335 12.4634C16.4573 12.3394 16.5253 12.1738 16.5249 11.9978C16.5253 11.8211 16.4573 11.6557 16.3335 11.5318Z" fill="#192391"/>
</svg>
