<svg width="24" height="24" viewBox="0 0 24 24" fill="none" xmlns="http://www.w3.org/2000/svg">
<rect x="24" y="24" width="24" height="24" rx="12" transform="rotate(-180 24 24)" fill="#192391" fill-opacity="0.05"/>
<path d="M8.66648 12.4682L14.0066 17.8083C14.1301 17.9319 14.295 18 14.4708 18C14.6466 18 14.8115 17.9319 14.935 17.8083L15.3283 17.4151C15.5842 17.1589 15.5842 16.7425 15.3283 16.4867L10.844 12.0025L15.3333 7.51326C15.4568 7.38965 15.525 7.22487 15.525 7.04916C15.525 6.87326 15.4568 6.70848 15.3333 6.58477L14.94 6.19171C14.8164 6.0681 14.6516 6 14.4758 6C14.3 6 14.1351 6.0681 14.0116 6.19171L8.66648 11.5366C8.54268 11.6606 8.47468 11.8262 8.47507 12.0022C8.47468 12.1789 8.54268 12.3443 8.66648 12.4682Z" fill="#192391"/>
</svg>
