<svg width="7" height="7" viewBox="0 0 7 7" fill="none" xmlns="http://www.w3.org/2000/svg">
<path d="M3.77314 5.44457L6.88817 2.32948C6.96028 2.25743 7 2.16125 7 2.0587C7 1.95615 6.96028 1.85997 6.88817 1.78792L6.65882 1.55852C6.50938 1.40924 6.26649 1.40924 6.11727 1.55852L3.50145 4.17433L0.882733 1.55561C0.810628 1.48357 0.714507 1.44379 0.612011 1.44379C0.509402 1.44379 0.413281 1.48357 0.341119 1.55561L0.111828 1.78502C0.0397234 1.85712 0 1.95325 0 2.0558C0 2.15835 0.0397234 2.25453 0.111828 2.32658L3.22971 5.44457C3.30204 5.51679 3.39861 5.55645 3.50128 5.55622C3.60434 5.55645 3.70086 5.51679 3.77314 5.44457Z" fill="#54556B"/>
</svg>
