<svg width="20" height="20" viewBox="0 0 20 20" fill="none" xmlns="http://www.w3.org/2000/svg">
<path d="M19.2188 12.9718C18.7873 12.9718 18.4375 13.3216 18.4375 13.7531C18.4375 14.6146 17.7366 15.3156 16.875 15.3156H3.12504C2.26348 15.3156 1.56254 14.6146 1.56254 13.7531V5.94057C1.56254 5.71311 1.61008 5.49416 1.70383 5.28991C1.88379 4.89776 1.71184 4.43393 1.31969 4.25397C0.927461 4.07389 0.463711 4.246 0.28375 4.63811C0.0954687 5.04826 0 5.48651 0 5.94057V13.7531C0 15.4762 1.40188 16.8781 3.125 16.8781H9.21875V18.4358H6.48438C6.05289 18.4358 5.70312 18.7856 5.70312 19.2171C5.70312 19.6485 6.05289 19.9983 6.48438 19.9983H13.5156C13.9471 19.9983 14.2969 19.6485 14.2969 19.2171C14.2969 18.7856 13.9471 18.4358 13.5156 18.4358H10.7812V16.8781H16.875C18.5981 16.8781 20 15.4762 20 13.7531C20 13.3216 19.6503 12.9718 19.2188 12.9718Z" fill="#54556B"/>
<path d="M19.7163 4.63813C19.5363 4.24602 19.0724 4.07407 18.6803 4.25399C18.2882 4.43399 18.1162 4.89782 18.2962 5.28993C18.3899 5.49419 18.4375 5.71313 18.4375 5.94059V9.84684C18.4375 10.2783 18.7872 10.6281 19.2187 10.6281C19.6502 10.6281 20 10.2783 20 9.84684V5.94059C20 5.48653 19.9045 5.04833 19.7163 4.63813Z" fill="#54556B"/>
<path d="M3.63281 7.3859C4.0643 7.3859 4.41406 7.03613 4.41406 6.60465V4.80957L5.69402 5.26547C5.5466 5.70426 5.23438 6.91515 5.23438 9.29996C5.23438 9.70207 5.53957 10.0385 5.93977 10.0775C5.95797 10.0793 7.74516 10.2644 9.56844 11.345C9.71008 11.4634 9.88855 11.5266 10.07 11.5266C10.0727 11.5266 10.0755 11.5264 10.0782 11.5264C10.0809 11.5264 10.0836 11.5266 10.0863 11.5266C10.2677 11.5266 10.4461 11.4634 10.5878 11.3451C12.3968 10.2735 14.1997 10.0792 14.2165 10.0775C14.6167 10.0385 14.9219 9.70207 14.9219 9.29996C14.9219 6.92254 14.6116 5.71183 14.4637 5.26965L16.2755 4.61961C16.9103 4.39195 17.3047 3.88488 17.3047 3.29633C17.3047 2.70777 16.9103 2.20066 16.2788 1.97414L11.5316 0.247186C10.6189 -0.0802355 9.57188 -0.0802746 8.6575 0.247772L3.88078 1.97297C3.39512 2.14715 3.05047 2.48492 2.9152 2.8975C2.87437 2.99226 2.85156 3.09652 2.85156 3.20621V6.60465C2.85156 7.03613 3.20133 7.3859 3.63281 7.3859ZM10.0781 9.83687C8.78871 9.12613 7.55176 8.79008 6.8059 8.63812C6.85434 6.91351 7.08379 6.04965 7.16664 5.79L8.65906 6.32156C9.11547 6.48527 9.60539 6.56715 10.0953 6.56715C10.5853 6.56715 11.0752 6.48527 11.5316 6.32156H11.5316L12.992 5.79766C13.077 6.06683 13.3024 6.93101 13.3504 8.63812C12.6045 8.79008 11.3675 9.12609 10.0781 9.83687ZM10.1478 2.42496H7.22898L9.18668 1.71789C9.75563 1.51379 10.4351 1.51375 11.0007 1.71672L15.3399 3.29531L11.004 4.85082C10.4351 5.05488 9.7557 5.05496 9.185 4.85019L6.76273 3.98746H10.1478C10.5793 3.98746 10.929 3.63769 10.929 3.20621C10.929 2.77473 10.5793 2.42496 10.1478 2.42496Z" fill="#54556B"/>
</svg>
