<svg width="20" height="20" viewBox="0 0 20 20" fill="none" xmlns="http://www.w3.org/2000/svg">
<g clip-path="url(#clip0)">
<path d="M19.7698 9.92939C19.6173 10.0808 19.4182 10.1564 19.2191 10.1564C19.0183 10.1564 18.8176 10.0795 18.6649 9.92588L18.0472 9.30408V12.9689C18.0472 13.4003 17.6975 13.7502 17.2661 13.7502C16.8346 13.7502 16.4849 13.4003 16.4849 12.9689V7.73136L10.5434 1.75068C10.2518 1.50089 9.82241 1.49997 9.52975 1.74854L3.51534 7.7512C3.5155 7.75867 3.51641 7.76615 3.51641 7.77378V16.875C3.51641 17.7365 4.2174 18.4375 5.07891 18.4375H14.9224C15.7839 18.4375 16.4849 17.7365 16.4849 16.875C16.4849 16.4435 16.8346 16.0938 17.2661 16.0938C17.6975 16.0938 18.0472 16.4435 18.0472 16.875C18.0472 18.5981 16.6454 19.9999 14.9224 19.9999H5.07891C3.35589 19.9999 1.95406 18.5981 1.95406 16.875V9.30942L1.3341 9.92817C1.02862 10.2329 0.534081 10.2324 0.22921 9.9271C-0.0755078 9.62177 -0.07505 9.12708 0.230278 8.82221L8.44454 0.624273C8.45492 0.613744 8.46575 0.603673 8.47689 0.593755C9.36907 -0.200617 10.7121 -0.197718 11.6011 0.600317C11.6121 0.610235 11.6229 0.620458 11.6333 0.630987L19.7733 8.82465C20.0774 9.13074 20.0759 9.62543 19.7698 9.92939ZM10.5371 7.87433C10.5641 7.90378 11.2073 8.6066 11.8592 9.48765C12.8165 10.7817 13.2819 11.7673 13.2819 12.5005V12.5782C13.2819 14.4091 11.7923 15.8985 9.96157 15.8985C8.13082 15.8985 6.64141 14.4091 6.64141 12.5782V12.5005C6.64141 11.7673 7.1068 10.7817 8.06399 9.48765C8.71584 8.6066 9.359 7.90378 9.38601 7.87433C9.53402 7.7132 9.74276 7.62134 9.96157 7.62134C10.1804 7.62134 10.3891 7.71305 10.5371 7.87433ZM10.603 10.4169C10.3795 10.1148 10.1555 9.83356 9.96172 9.59873C9.76519 9.83661 9.53799 10.122 9.31246 10.4273C8.25732 11.856 8.20376 12.405 8.20376 12.5005V12.5782C8.20376 13.5474 8.99233 14.336 9.96157 14.336C10.9308 14.336 11.7194 13.5474 11.7194 12.5782V12.5005C11.7194 12.4045 11.6655 11.8532 10.603 10.4169Z" fill="#192391"/>
</g>
<defs>
<clipPath id="clip0">
<rect width="20" height="20" fill="white"/>
</clipPath>
</defs>
</svg>
