<svg width="50" height="50" viewBox="0 0 50 50" fill="none" xmlns="http://www.w3.org/2000/svg">
<rect width="50" height="50" rx="25" fill="#192391" fill-opacity="0.05"/>
<path d="M33.6999 22.4738C37.2624 21.9657 38.7481 17.5777 36.1867 15.0161C35.5113 14.3407 34.6325 13.9129 33.6896 13.7844C33.5611 12.8416 33.1332 11.9627 32.4579 11.2873C29.8894 8.71904 25.5068 10.2229 25.0002 13.774C24.4919 10.2118 20.1041 8.72567 17.5424 11.2873C16.8671 11.9627 16.4392 12.8416 16.3107 13.7844C15.3679 13.9129 14.4889 14.3408 13.8136 15.0161C11.2489 17.5808 12.7429 21.9664 16.3003 22.4738C12.738 22.9821 11.252 27.37 13.8136 29.9316C14.489 30.607 15.3678 31.0349 16.3107 31.1633C16.4392 32.1061 16.8671 32.985 17.5424 33.6604C19.411 35.529 22.5044 35.3329 24.1213 33.2468V35.6055C24.1213 38.0286 26.0926 40 28.5158 40C29.0011 40 29.3947 39.6064 29.3947 39.1211C29.3947 38.6356 29.0011 38.2422 28.5158 38.2422C27.0619 38.2422 25.8791 37.0593 25.8791 35.6055V33.2468C27.4934 35.3298 30.5792 35.5391 32.4579 33.6604C33.1332 32.9851 33.5611 32.1061 33.6896 31.1634C34.6324 31.0348 35.5114 30.6069 36.1867 29.9316C38.7513 27.3668 37.2574 22.9813 33.6999 22.4738ZM25 23.3527C24.5154 23.3527 24.1211 22.9585 24.1211 22.4738C24.1211 21.9892 24.5154 21.5949 25 21.5949C25.4847 21.5949 25.8789 21.9892 25.8789 22.4738C25.8789 22.9585 25.4847 23.3527 25 23.3527ZM26.7272 14.1274C26.9477 11.9458 29.6335 10.949 31.2149 12.5302C31.7519 13.0673 32.0189 13.7922 31.9665 14.5716C31.9308 15.1015 32.3709 15.543 32.9023 15.5074C33.6814 15.455 34.4067 15.722 34.9438 16.2591C36.5236 17.8391 35.5294 20.5261 33.3466 20.7467L27.3844 21.3494C27.3826 21.3456 27.3809 21.3416 27.3791 21.3378L30.8949 17.8219C31.2382 17.4787 31.2382 16.9222 30.8949 16.579C30.5518 16.2358 29.9952 16.2358 29.652 16.579L26.1362 20.0948C26.1323 20.093 26.1284 20.0914 26.1245 20.0896L26.7272 14.1274ZM15.0564 16.2591C15.5935 15.722 16.3177 15.4549 17.0978 15.5074C17.6278 15.5429 18.0694 15.103 18.0336 14.5716C17.9813 13.7922 18.2482 13.0673 18.7853 12.5302C20.3652 10.9503 23.0523 11.9444 23.2729 14.1274L23.8757 20.0895C23.8718 20.0913 23.8678 20.093 23.864 20.0948L20.3482 16.5789C20.005 16.2357 19.4485 16.2357 19.1052 16.5789C18.762 16.9222 18.762 17.4786 19.1052 17.8219L22.6211 21.3377C22.6193 21.3416 22.6176 21.3455 22.6158 21.3494L16.6536 20.7466C14.4719 20.5263 13.4752 17.8403 15.0564 16.2591ZM23.2729 30.8203C23.0524 33.002 20.3667 33.9988 18.7853 32.4175C18.2482 31.8804 17.9813 31.1555 18.0336 30.3761C18.0693 29.8462 17.6292 29.4046 17.0978 29.4403C16.3185 29.4926 15.5935 29.2257 15.0564 28.6886C13.4764 27.1085 14.4708 24.4216 16.6536 24.2009L22.6158 23.5983C22.6176 23.6021 22.6192 23.6061 22.621 23.6099L19.1052 27.1258C18.762 27.469 18.762 28.0255 19.1052 28.3687C19.4483 28.7119 20.0048 28.7119 20.3481 28.3687L23.864 24.8529C23.8679 24.8547 23.8718 24.8563 23.8757 24.8581L23.2729 30.8203ZM34.9437 28.6886C34.4066 29.2257 33.6816 29.4925 32.9022 29.4403C32.37 29.4048 31.9308 29.8468 31.9664 30.3761C32.0188 31.1555 31.7519 31.8804 31.2148 32.4174C29.6297 34.0025 26.9474 32.9995 26.7271 30.8203L26.1244 24.8582C26.1283 24.8564 26.1322 24.8547 26.136 24.8529L29.6519 28.3688C29.9951 28.712 30.5516 28.712 30.8949 28.3688C31.2381 28.0255 31.2381 27.4691 30.8949 27.1258L27.379 23.61C27.3809 23.6062 27.3825 23.6022 27.3843 23.5983L33.3465 24.2011C35.5282 24.4215 36.525 27.1074 34.9437 28.6886Z" fill="#192391"/>
</svg>
