<svg width="20" height="20" viewBox="0 0 20 20" fill="none" xmlns="http://www.w3.org/2000/svg">
<g clip-path="url(#clip0)">
<path d="M19.2187 16.0936C18.7873 16.0936 18.4375 16.4434 18.4375 16.8749C18.4375 17.2922 18.275 17.6846 17.9799 17.9797C17.6847 18.2748 17.2924 18.4374 16.8751 18.4374L5.83047 18.4375C6.09715 17.9776 6.24996 17.4437 6.24996 16.8749V3.1251C6.24996 2.26218 6.94953 1.56261 7.81245 1.56261H16.8749C17.7365 1.56261 18.4374 2.26355 18.4374 3.1251L18.4375 12.9688C18.4787 14.0054 19.9591 14.0046 20 12.9688L19.9999 3.1251C19.9999 1.40199 18.598 0.00012207 16.8749 0.00012207H7.81245C6.08657 0.00012207 4.68747 1.39922 4.68747 3.1251V10.2344H3.12498C1.39909 10.2344 0 11.6335 0 13.3594V16.9021C0 18.6067 1.37765 19.9911 3.08229 19.9997C3.09084 19.9997 16.8751 19.9999 16.8751 19.9999C17.7098 19.9999 18.4945 19.6748 19.0847 19.0846C19.675 18.4944 20 17.7096 20 16.8749C20 16.4434 19.6502 16.0936 19.2187 16.0936ZM4.68747 16.8749C4.68747 17.7364 3.98662 18.4373 3.1251 18.4374H3.11236C2.25659 18.4374 1.56249 17.7437 1.56249 16.888V13.3594C1.56249 12.4965 2.26206 11.7969 3.12498 11.7969H4.68747V16.8749ZM16.8358 10.0391C16.8358 10.4706 16.4861 10.8204 16.0546 10.8204H8.5937C7.55714 10.7791 7.55792 9.29878 8.5937 9.25788H16.0546C16.4861 9.25788 16.8358 9.60764 16.8358 10.0391ZM16.8358 3.90635C16.8358 3.47487 16.4861 3.1251 16.0546 3.1251H8.5937C8.16222 3.1251 7.81245 3.47487 7.81245 3.90635V6.99227C7.81245 7.42375 8.16222 7.77351 8.5937 7.77351H16.0546C16.4861 7.77351 16.8358 7.42375 16.8358 6.99227V3.90635ZM15.2733 6.21102H9.37495V4.68759H15.2733V6.21102ZM16.0546 13.8672H8.5937C7.55714 13.826 7.55792 12.3456 8.5937 12.3047H16.0546C17.0912 12.346 17.0904 13.8264 16.0546 13.8672ZM12.539 15.3125C13.5755 15.3538 13.5748 16.8341 12.539 16.875H8.5937C7.55714 16.8338 7.55792 15.3534 8.5937 15.3125H12.539Z" fill="#54556B"/>
</g>
<defs>
<clipPath id="clip0">
<rect width="20" height="20" fill="white"/>
</clipPath>
</defs>
</svg>
