<svg width="100%" height="100%" viewBox="0 0 20 20" fill="none" xmlns="http://www.w3.org/2000/svg">
<path d="M18.3678 6.23667C17.366 3.76539 15.4554 1.83043 12.9881 0.788165C11.4192 0.125432 9.70026 -0.12656 8.01741 0.0595724C7.29991 0.138908 6.73226 0.669298 6.60487 1.37937C6.4778 2.08789 6.82495 2.78097 7.46874 3.10402C8.70791 3.72578 9.67893 4.77679 10.203 6.06347C11.3956 8.99151 9.98662 12.3449 7.06225 13.5387C5.77738 14.0632 4.34828 14.1032 3.03809 13.6512C2.35754 13.4165 1.61879 13.6529 1.19997 14.2395C0.78192 14.8251 0.798287 15.5991 1.24059 16.1656C2.28285 17.5002 3.66285 18.5549 5.23148 19.2156C6.48167 19.7421 7.79874 20 9.10737 20C11.355 19.9999 13.5774 19.2391 15.3906 17.772C15.7261 17.5006 15.778 17.0086 15.5066 16.6731C15.2352 16.3376 14.7432 16.2858 14.4077 16.5572C11.9873 18.5157 8.70366 18.9824 5.838 17.7755C4.51461 17.2181 3.3507 16.3289 2.47219 15.2038C2.45672 15.184 2.45094 15.1766 2.47176 15.1475C2.49391 15.1164 2.50551 15.1205 2.52856 15.1285C4.19707 15.704 6.01691 15.6532 7.65276 14.9854C11.3742 13.4662 13.1674 9.19948 11.6501 5.47405C10.9832 3.83667 9.74709 2.49898 8.16948 1.70738C8.14612 1.6957 8.13647 1.69086 8.14284 1.65523C8.14971 1.61703 8.1637 1.61551 8.18909 1.61269C9.60717 1.4559 11.0565 1.66851 12.38 2.22762C14.4626 3.1073 16.0748 4.7396 16.9197 6.8237C17.7646 8.90799 17.7446 11.2038 16.8635 13.2883C16.8211 13.3886 16.7761 13.4895 16.7299 13.5881C16.5468 13.9789 16.7151 14.444 17.1059 14.6272C17.4967 14.8102 17.9618 14.6418 18.1449 14.2511C18.1995 14.1345 18.2526 14.0154 18.3028 13.8967C19.3464 11.428 19.3695 8.7076 18.3678 6.23667Z" fill="#54556B"/>
</svg>
