<svg width="100%" height="100%" viewBox="0 0 25 25" fill="none" xmlns="http://www.w3.org/2000/svg">
<path d="M19 17.6641H17.9844V8.91406C17.9844 6.01428 15.8781 3.97495 12.6719 3.67801V2.78125C12.6719 2.34973 12.3221 2 11.8906 2C11.4591 2 11.1094 2.34973 11.1094 2.78125V3.67801C7.9032 3.97495 5.79688 6.01428 5.79688 8.91406V17.6641H4.78125C4.34973 17.6641 4 18.0138 4 18.4453C4 18.8768 4.34973 19.2266 4.78125 19.2266H9.83527C9.77499 19.4245 9.74219 19.6343 9.74219 19.8516C9.74219 21.0363 10.7059 22 11.8906 22C13.0753 22 14.0391 21.0363 14.0391 19.8516C14.0391 19.6343 14.0063 19.4245 13.946 19.2266H19C19.4315 19.2266 19.7812 18.8768 19.7812 18.4453C19.7812 18.0138 19.4315 17.6641 19 17.6641ZM11.8906 20.4375C11.5676 20.4375 11.3047 20.1746 11.3047 19.8516C11.3047 19.5285 11.5676 19.2656 11.8906 19.2656C12.2137 19.2656 12.4766 19.5285 12.4766 19.8516C12.4766 20.1746 12.2137 20.4375 11.8906 20.4375ZM7.35938 16.1797H14.0781C14.5096 16.1797 14.8594 15.83 14.8594 15.3984C14.8594 14.9669 14.5096 14.6172 14.0781 14.6172H7.35938V8.91406C7.35938 6.2247 9.66467 5.2341 11.8241 5.20358H11.9572C14.1166 5.2341 16.4219 6.2247 16.4219 8.91406V17.6641H7.35938V16.1797Z" fill="#54556B"/>
</svg>
