<svg width="14" height="14" viewBox="0 0 14 14" fill="none" xmlns="http://www.w3.org/2000/svg">
<g clip-path="url(#clip0)">
<path d="M13.1461 10.2966L11.1882 8.82819C11.6776 7.98908 11.8874 7.01011 11.8874 5.96122C11.8874 2.6747 9.23023 0.0175171 5.94371 0.0175171C2.65719 0.0175171 0 2.6747 0 5.9612C0 9.24769 2.65719 11.9049 5.94371 11.9049C6.9926 11.9049 7.90164 11.6252 8.81067 11.2056L10.2791 13.1636C11.0483 14.1425 12.5167 14.2824 13.4258 13.3734C14.2649 12.5342 14.195 11.0658 13.1461 10.2966ZM5.94371 10.5064C3.42637 10.5064 1.39852 8.47856 1.39852 5.96122C1.39852 3.44389 3.42637 1.41604 5.94371 1.41604C8.46104 1.41604 10.4889 3.44389 10.4889 5.9612C10.4889 8.47851 8.46104 10.5064 5.94371 10.5064Z" fill="#54556B"/>
</g>
<defs>
<clipPath id="clip0">
<rect width="14" height="14" fill="white"/>
</clipPath>
</defs>
</svg>
