<svg width="20" height="20" viewBox="0 0 20 20" fill="none" xmlns="http://www.w3.org/2000/svg">
<path d="M4.40927 12.1816L1.39972 15.1914C1.26845 15.3226 1.09641 15.3883 0.92437 15.3883C0.752332 15.3883 0.580293 15.3226 0.449018 15.1914C0.186468 14.9288 0.186468 14.5031 0.449018 14.2406L3.45863 11.2309C3.72118 10.9684 4.14678 10.9684 4.40933 11.2309C4.67182 11.4934 4.67182 11.9191 4.40927 12.1816ZM5.96446 17.9486L5.06069 18.8524C4.7982 19.1149 4.7982 19.5406 5.06069 19.8032C5.19197 19.9344 5.36401 20.0001 5.53605 20.0001C5.70808 20.0001 5.88012 19.9344 6.0114 19.8032L6.91517 18.8994C7.17772 18.6368 7.17772 18.2112 6.91517 17.9486C6.65268 17.6861 6.22701 17.6861 5.96446 17.9486ZM19.2184 2.81056C19.1552 2.96903 19.0882 3.13667 19.0193 3.31341L14.6334 14.5503C14.0102 16.1471 13.5552 16.986 12.7987 17.1399C12.7175 17.1564 12.639 17.1643 12.5627 17.1643C11.9715 17.1643 11.5108 16.6925 10.9447 16.1127C10.9294 16.0972 10.9141 16.0815 10.8987 16.0657L3.81658 16.5292C3.53704 16.5472 3.27583 16.3908 3.16032 16.1358C3.04482 15.8808 3.09933 15.581 3.29728 15.383L6.75841 11.9219L3.79201 8.95555C2.9378 8.10134 2.4388 7.42951 2.59024 6.72063C2.75666 5.94154 3.54535 5.64061 4.73911 5.18518C4.89782 5.12462 5.06583 5.06051 5.24245 4.99157L16.4794 0.60553C18.0848 -0.0209598 18.9408 -0.226123 19.4644 0.301361C20.0032 0.844428 19.691 1.62658 19.2184 2.81056ZM18.3159 1.40076C18.0624 1.46334 17.6462 1.59339 16.9682 1.85796L5.73137 6.24406C5.55139 6.31428 5.38014 6.37967 5.21843 6.4414C4.72377 6.63012 4.11891 6.86083 3.92683 7.01411C3.97511 7.1265 4.14513 7.4072 4.74277 8.00484L7.70917 10.9712L13.7761 4.90424C14.0387 4.64175 14.4643 4.64175 14.7269 4.90424C14.9894 5.16679 14.9894 5.59245 14.7269 5.855L8.1877 12.3941C8.18666 12.3952 8.18556 12.3962 8.18452 12.3973C8.18342 12.3984 8.18239 12.3994 8.18129 12.4005L5.51087 15.071L9.63735 14.8008L8.84096 14.0044C8.57841 13.7419 8.57841 13.3162 8.84096 13.0537C8.97223 12.9225 9.14427 12.8568 9.31631 12.8568C9.48835 12.8568 9.66039 12.9224 9.79166 13.0537L11.5938 14.8557C11.7046 14.9665 11.8085 15.0729 11.9066 15.1733C12.126 15.3979 12.39 15.6683 12.546 15.7786C12.6707 15.6371 12.9249 15.2297 13.3809 14.0612L17.7668 2.82443C17.8371 2.64439 17.9053 2.47345 17.9697 2.31204C18.09 2.01069 18.2285 1.6638 18.3159 1.40076Z" fill="#88B897" fill-opacity="0.75"/>
</svg>
