<svg width="20" height="20" viewBox="0 0 20 20" fill="none" xmlns="http://www.w3.org/2000/svg">
<g clip-path="url(#clip0)">
<path d="M19.9969 3.14285V12.7965C19.9969 13.2304 19.6439 13.5815 19.2099 13.5791C18.7794 13.5768 18.4317 13.2271 18.4317 12.7965V3.14285C18.4317 2.27295 17.7174 1.56525 16.8394 1.56525C15.948 1.56525 15.2228 2.27295 15.2228 3.14285C15.2228 3.84659 15.7376 4.46335 16.3861 4.68597C16.6989 4.7934 16.9055 5.09201 16.9055 5.42282V9.78333C16.9055 10.2173 16.5524 10.5684 16.1185 10.5659C15.6879 10.5635 15.3401 10.2138 15.3401 9.78333V6.33957H7.08313C6.65085 6.33957 6.30035 5.98923 6.30035 5.55695C6.30035 5.12466 6.65085 4.77417 7.08313 4.77417H14.109C13.8148 4.28299 13.6574 3.72299 13.6574 3.14285C13.6574 2.56805 13.8152 2.02942 14.0891 1.56525H3.15765C2.27966 1.56525 1.5654 2.27295 1.5654 3.14285C1.5654 4.0271 2.29446 4.77417 3.15765 4.77417C3.58963 4.77417 3.93982 5.12405 3.94028 5.55603L3.95248 16.8686C3.95248 17.7325 4.65469 18.4348 5.51773 18.4348H12.914C13.3463 18.4348 13.6966 18.7851 13.6966 19.2174C13.6966 19.6495 13.3463 20 12.914 20H5.51773C3.7915 20 2.38708 18.5956 2.38708 16.8694L2.37579 6.23978C1.82999 6.09741 1.32843 5.80582 0.918121 5.38513C0.32608 4.77829 0 3.98193 0 3.14285C0 1.40991 1.41647 0 3.15765 0H16.7801C16.7867 0 16.7931 0.000762938 16.7998 0.000915527C16.8129 0.000762938 16.826 0 16.8394 0C18.5805 0 19.9969 1.40991 19.9969 3.14285ZM19.3098 15.9894C20.2248 16.9041 20.2248 18.3939 19.3092 19.3092C18.8515 19.767 18.2503 19.9959 17.6491 19.9959C17.0477 19.9959 16.4465 19.767 15.9888 19.3092L11.7088 15.0214C11.6136 14.9258 11.5445 14.8074 11.5085 14.6774L10.6335 11.5184C10.5573 11.2433 10.6369 10.9486 10.8412 10.7492C11.0455 10.5499 11.342 10.4776 11.6153 10.5606L14.696 11.4963C14.8193 11.5338 14.9315 11.6011 15.0226 11.6924L19.3098 15.9894ZM12.9622 14.0611L15.8389 16.9434L16.946 15.8363L14.053 12.937L12.5218 12.4719L12.9622 14.0611ZM18.2024 17.0956L18.0516 16.9444L16.9447 18.0513L17.0961 18.203C17.4007 18.5077 17.8972 18.5077 18.2024 18.2025C18.5075 17.8973 18.5075 17.4008 18.2024 17.0956Z" fill="#54556B"/>
</g>
<defs>
<clipPath id="clip0">
<rect width="20" height="20" fill="white"/>
</clipPath>
</defs>
</svg>
