<svg width="100%" height="100%" viewBox="0 0 30 30" fill="none" xmlns="http://www.w3.org/2000/svg">
<path d="M25.3125 1.05469H4.6875C2.10274 1.05469 0 3.15742 0 5.74219V22.1484C0 24.7332 2.10274 26.8359 4.6875 26.8359H15.8203C16.2673 26.8359 16.6754 26.5816 16.8725 26.1802C17.0693 25.779 17.0208 25.3004 16.7471 24.947L13.6819 20.9855L22.1775 10.1793L27.6562 16.7152V18.6914C27.6562 19.3387 28.1808 19.8633 28.8281 19.8633C29.4754 19.8633 30 19.3387 30 18.6914V5.74219C30 3.15742 27.8973 1.05469 25.3125 1.05469V1.05469ZM23.0466 7.56752C22.8197 7.29698 22.4835 7.14249 22.1301 7.14867C21.777 7.15416 21.4453 7.3185 21.2272 7.59613L12.2028 19.0743L9.12987 15.1032C8.90785 14.8162 8.56567 14.6484 8.20312 14.6484C8.20267 14.6484 8.20198 14.6484 8.20152 14.6484C7.83829 14.6489 7.49565 14.8178 7.27432 15.1057L4.69528 18.4584C4.30069 18.9716 4.39659 19.7072 4.90952 20.1018C5.42267 20.4966 6.15829 20.4005 6.55289 19.8875L8.20587 17.7388L13.4317 24.4922H4.6875C3.39523 24.4922 2.34375 23.4407 2.34375 22.1484V5.74219C2.34375 4.44992 3.39523 3.39844 4.6875 3.39844H25.3125C26.6048 3.39844 27.6562 4.44992 27.6562 5.74219V13.0669L23.0466 7.56752ZM8.20312 5.27344C6.2645 5.27344 4.6875 6.85043 4.6875 8.78906C4.6875 10.7277 6.2645 12.3047 8.20312 12.3047C10.1418 12.3047 11.7188 10.7277 11.7188 8.78906C11.7188 6.85043 10.1418 5.27344 8.20312 5.27344ZM8.20312 9.96094C7.55699 9.96094 7.03125 9.4352 7.03125 8.78906C7.03125 8.14293 7.55699 7.61719 8.20312 7.61719C8.84926 7.61719 9.375 8.14293 9.375 8.78906C9.375 9.4352 8.84926 9.96094 8.20312 9.96094ZM30 23.3789C30 24.0262 29.4754 24.5508 28.8281 24.5508H25.6055V27.7734C25.6055 28.4207 25.0809 28.9453 24.4336 28.9453C23.7863 28.9453 23.2617 28.4207 23.2617 27.7734V24.5508H20.0391C19.3918 24.5508 18.8672 24.0262 18.8672 23.3789C18.8672 22.7316 19.3918 22.207 20.0391 22.207H23.2617V18.9844C23.2617 18.3371 23.7863 17.8125 24.4336 17.8125C25.0809 17.8125 25.6055 18.3371 25.6055 18.9844V22.207H28.8281C29.4754 22.207 30 22.7316 30 23.3789Z" fill="#192391"/>
</svg>
