<svg width="100%" height="100%" viewBox="0 0 168 50" fill="none" xmlns="http://www.w3.org/2000/svg">
<path d="M67.7 29.8H73.4V32H65.4V18H67.7V29.8ZM76.3545 27.92C76.5145 28.68 76.8812 29.2667 77.4545 29.68C78.0279 30.08 78.7279 30.28 79.5545 30.28C80.7012 30.28 81.5612 29.8667 82.1345 29.04L83.9145 30.08C82.9279 31.5333 81.4679 32.26 79.5345 32.26C77.9079 32.26 76.5945 31.7667 75.5945 30.78C74.5945 29.78 74.0945 28.52 74.0945 27C74.0945 25.5067 74.5879 24.26 75.5745 23.26C76.5612 22.2467 77.8279 21.74 79.3745 21.74C80.8412 21.74 82.0412 22.2533 82.9745 23.28C83.9212 24.3067 84.3945 25.5533 84.3945 27.02C84.3945 27.2467 84.3679 27.5467 84.3145 27.92H76.3545ZM76.3345 26.16H82.2145C82.0679 25.3467 81.7279 24.7333 81.1945 24.32C80.6745 23.9067 80.0612 23.7 79.3545 23.7C78.5545 23.7 77.8879 23.92 77.3545 24.36C76.8212 24.8 76.4812 25.4 76.3345 26.16ZM92.6845 22H95.0445L91.1445 32H88.6445L84.7445 22H87.1045L89.9045 29.6L92.6845 22ZM97.7217 27.92C97.8817 28.68 98.2484 29.2667 98.8217 29.68C99.3951 30.08 100.095 30.28 100.922 30.28C102.068 30.28 102.928 29.8667 103.502 29.04L105.282 30.08C104.295 31.5333 102.835 32.26 100.902 32.26C99.2751 32.26 97.9617 31.7667 96.9617 30.78C95.9617 29.78 95.4617 28.52 95.4617 27C95.4617 25.5067 95.9551 24.26 96.9417 23.26C97.9284 22.2467 99.1951 21.74 100.742 21.74C102.208 21.74 103.408 22.2533 104.342 23.28C105.288 24.3067 105.762 25.5533 105.762 27.02C105.762 27.2467 105.735 27.5467 105.682 27.92H97.7217ZM97.7017 26.16H103.582C103.435 25.3467 103.095 24.7333 102.562 24.32C102.042 23.9067 101.428 23.7 100.722 23.7C99.9217 23.7 99.2551 23.92 98.7217 24.36C98.1884 24.8 97.8484 25.4 97.7017 26.16ZM107.662 32V17.4H109.822V32H107.662ZM117.05 32.26C115.544 32.26 114.284 31.7533 113.27 30.74C112.27 29.7267 111.77 28.48 111.77 27C111.77 25.5067 112.27 24.26 113.27 23.26C114.284 22.2467 115.544 21.74 117.05 21.74C118.024 21.74 118.91 21.9733 119.71 22.44C120.51 22.9067 121.11 23.5333 121.51 24.32L119.65 25.4C119.424 24.92 119.077 24.5467 118.61 24.28C118.157 24 117.63 23.86 117.03 23.86C116.15 23.86 115.41 24.16 114.81 24.76C114.224 25.36 113.93 26.1067 113.93 27C113.93 27.8933 114.224 28.64 114.81 29.24C115.41 29.84 116.15 30.14 117.03 30.14C117.617 30.14 118.144 30 118.61 29.72C119.09 29.44 119.45 29.0667 119.69 28.6L121.55 29.66C121.124 30.46 120.51 31.0933 119.71 31.56C118.91 32.0267 118.024 32.26 117.05 32.26ZM123.112 32V17.4H125.272V32H123.112ZM129.48 27.92C129.64 28.68 130.006 29.2667 130.58 29.68C131.153 30.08 131.853 30.28 132.68 30.28C133.826 30.28 134.686 29.8667 135.26 29.04L137.04 30.08C136.053 31.5333 134.593 32.26 132.66 32.26C131.033 32.26 129.72 31.7667 128.72 30.78C127.72 29.78 127.22 28.52 127.22 27C127.22 25.5067 127.713 24.26 128.7 23.26C129.686 22.2467 130.953 21.74 132.5 21.74C133.966 21.74 135.166 22.2533 136.1 23.28C137.046 24.3067 137.52 25.5533 137.52 27.02C137.52 27.2467 137.493 27.5467 137.44 27.92H129.48ZM129.46 26.16H135.34C135.193 25.3467 134.853 24.7333 134.32 24.32C133.8 23.9067 133.186 23.7 132.48 23.7C131.68 23.7 131.013 23.92 130.48 24.36C129.946 24.8 129.606 25.4 129.46 26.16ZM145.81 22H148.17L144.27 32H141.77L137.87 22H140.23L143.03 29.6L145.81 22ZM150.847 27.92C151.007 28.68 151.373 29.2667 151.947 29.68C152.52 30.08 153.22 30.28 154.047 30.28C155.193 30.28 156.053 29.8667 156.627 29.04L158.407 30.08C157.42 31.5333 155.96 32.26 154.027 32.26C152.4 32.26 151.087 31.7667 150.087 30.78C149.087 29.78 148.587 28.52 148.587 27C148.587 25.5067 149.08 24.26 150.067 23.26C151.053 22.2467 152.32 21.74 153.867 21.74C155.333 21.74 156.533 22.2533 157.467 23.28C158.413 24.3067 158.887 25.5533 158.887 27.02C158.887 27.2467 158.86 27.5467 158.807 27.92H150.847ZM150.827 26.16H156.707C156.56 25.3467 156.22 24.7333 155.687 24.32C155.167 23.9067 154.553 23.7 153.847 23.7C153.047 23.7 152.38 23.92 151.847 24.36C151.313 24.8 150.973 25.4 150.827 26.16ZM162.947 23.68C163.494 22.44 164.521 21.82 166.027 21.82V24.16C165.201 24.1067 164.481 24.3067 163.867 24.76C163.254 25.2 162.947 25.9333 162.947 26.96V32H160.787V22H162.947V23.68Z" fill="#192391"/>
<rect width="50" height="50" rx="25" fill="#192391" fill-opacity="0.05"/>
<path d="M33.6999 22.4738C37.2624 21.9656 38.7481 17.5776 36.1867 15.0161C35.5113 14.3407 34.6325 13.9128 33.6896 13.7843C33.5611 12.8416 33.1332 11.9626 32.4579 11.2873C29.8894 8.71898 25.5068 10.2228 25.0002 13.774C24.4919 10.2117 20.1041 8.7256 17.5424 11.2873C16.8671 11.9626 16.4392 12.8416 16.3107 13.7843C15.3679 13.9129 14.4889 14.3407 13.8136 15.0161C11.2489 17.5808 12.7429 21.9663 16.3003 22.4738C12.738 22.982 11.252 27.37 13.8136 29.9315C14.489 30.6069 15.3678 31.0348 16.3107 31.1632C16.4392 32.106 16.8671 32.985 17.5424 33.6604C19.411 35.529 22.5044 35.3329 24.1213 33.2468V35.6054C24.1213 38.0285 26.0926 39.9999 28.5158 39.9999C29.0011 39.9999 29.3947 39.6064 29.3947 39.121C29.3947 38.6355 29.0011 38.2421 28.5158 38.2421C27.0619 38.2421 25.8791 37.0592 25.8791 35.6054V33.2467C27.4934 35.3297 30.5792 35.539 32.4579 33.6604C33.1332 32.985 33.5611 32.1061 33.6896 31.1633C34.6324 31.0348 35.5114 30.6068 36.1867 29.9316C38.7513 27.3667 37.2574 22.9813 33.6999 22.4738ZM25 23.3527C24.5154 23.3527 24.1211 22.9584 24.1211 22.4738C24.1211 21.9892 24.5154 21.5949 25 21.5949C25.4847 21.5949 25.8789 21.9892 25.8789 22.4738C25.8789 22.9584 25.4847 23.3527 25 23.3527ZM26.7272 14.1273C26.9477 11.9457 29.6335 10.9489 31.2149 12.5301C31.7519 13.0672 32.0189 13.7922 31.9665 14.5715C31.9308 15.1014 32.3709 15.5429 32.9023 15.5074C33.6814 15.4549 34.4067 15.722 34.9438 16.259C36.5236 17.839 35.5294 20.526 33.3466 20.7466L27.3844 21.3494C27.3826 21.3455 27.3809 21.3415 27.3791 21.3377L30.8949 17.8219C31.2382 17.4786 31.2382 16.9222 30.8949 16.5789C30.5518 16.2357 29.9952 16.2357 29.652 16.5789L26.1362 20.0948C26.1323 20.093 26.1284 20.0913 26.1245 20.0895L26.7272 14.1273ZM15.0564 16.259C15.5935 15.722 16.3177 15.4549 17.0978 15.5074C17.6278 15.5428 18.0694 15.1029 18.0336 14.5715C17.9813 13.7922 18.2482 13.0672 18.7853 12.5301C20.3652 10.9502 23.0523 11.9443 23.2729 14.1273L23.8757 20.0894C23.8718 20.0913 23.8678 20.0929 23.864 20.0947L20.3482 16.5789C20.005 16.2356 19.4485 16.2356 19.1052 16.5789C18.762 16.9221 18.762 17.4786 19.1052 17.8218L22.6211 21.3377C22.6193 21.3415 22.6176 21.3455 22.6158 21.3493L16.6536 20.7466C14.4719 20.5262 13.4752 17.8403 15.0564 16.259ZM23.2729 30.8202C23.0524 33.0019 20.3667 33.9987 18.7853 32.4174C18.2482 31.8804 17.9813 31.1554 18.0336 30.376C18.0693 29.8462 17.6292 29.4045 17.0978 29.4402C16.3185 29.4925 15.5935 29.2256 15.0564 28.6886C13.4764 27.1085 14.4708 24.4215 16.6536 24.2009L22.6158 23.5982C22.6176 23.6021 22.6192 23.606 22.621 23.6099L19.1052 27.1257C18.762 27.4689 18.762 28.0254 19.1052 28.3686C19.4483 28.7119 20.0048 28.7119 20.3481 28.3686L23.864 24.8528C23.8679 24.8546 23.8718 24.8563 23.8757 24.8581L23.2729 30.8202ZM34.9437 28.6886C34.4066 29.2256 33.6816 29.4925 32.9022 29.4402C32.37 29.4047 31.9308 29.8468 31.9664 30.376C32.0188 31.1554 31.7519 31.8804 31.2148 32.4174C29.6297 34.0025 26.9474 32.9994 26.7271 30.8202L26.1244 24.8581C26.1283 24.8563 26.1322 24.8547 26.136 24.8529L29.6519 28.3687C29.9951 28.7119 30.5516 28.7119 30.8949 28.3687C31.2381 28.0255 31.2381 27.469 30.8949 27.1258L27.379 23.6099C27.3809 23.6061 27.3825 23.6021 27.3843 23.5983L33.3465 24.201C35.5282 24.4214 36.525 27.1073 34.9437 28.6886Z" fill="#192391"/>
</svg>
