<svg width="96" height="96" viewBox="0 0 96 96" fill="none" xmlns="http://www.w3.org/2000/svg">
<path d="M90 91.5H81V73.5H90V91.5Z" fill="#F0C6A4"/>
<path d="M48 73.5H57V91.5H48V73.5Z" fill="#F0C6A4"/>
<path d="M90 61.5V73.5H84V91.5H54V73.5H48V61.5C48 56.7261 49.8964 52.1477 53.2721 48.7721C56.6477 45.3964 61.2261 43.5 66 43.5H72C76.7739 43.5 81.3523 45.3964 84.7279 48.7721C88.1036 52.1477 90 56.7261 90 61.5Z" fill="#F7B030"/>
<path d="M63 42H75V52.5H63V42Z" fill="#F0C6A4"/>
<path d="M72 66C72.8284 66 73.5 65.3284 73.5 64.5C73.5 63.6716 72.8284 63 72 63C71.1716 63 70.5 63.6716 70.5 64.5C70.5 65.3284 71.1716 66 72 66Z" fill="#E37E22"/>
<path d="M72 75C72.8284 75 73.5 74.3284 73.5 73.5C73.5 72.6716 72.8284 72 72 72C71.1716 72 70.5 72.6716 70.5 73.5C70.5 74.3284 71.1716 75 72 75Z" fill="#E37E22"/>
<path d="M72 84C72.8284 84 73.5 83.3284 73.5 82.5C73.5 81.6716 72.8284 81 72 81C71.1716 81 70.5 81.6716 70.5 82.5C70.5 83.3284 71.1716 84 72 84Z" fill="#E37E22"/>
<path d="M67.5 52.5H70.5V91.5H67.5V52.5Z" fill="#EBA72E"/>
<path d="M63.1444 43.5C63.1444 43.5 61.8866 52.5 69 52.5C68.6067 53.4074 67.9522 54.1773 67.1199 54.7115C66.2876 55.2458 65.3152 55.5203 64.3264 55.5C55.9667 55.5 53.7077 43.5 63.1444 43.5Z" fill="#E37E22"/>
<path d="M74.8556 43.5C74.8556 43.5 76.1134 52.5 69 52.5C69.3933 53.4074 70.0478 54.1773 70.8801 54.7115C71.7124 55.2458 72.6848 55.5203 73.6736 55.5C82.0333 55.5 84.2923 43.5 74.8556 43.5Z" fill="#E37E22"/>
<path d="M82.5 19.5C86.6421 19.5 90 16.1421 90 12C90 7.85786 86.6421 4.5 82.5 4.5C78.3579 4.5 75 7.85786 75 12C75 16.1421 78.3579 19.5 82.5 19.5Z" fill="#734B39"/>
<path d="M88.5 25.5C88.5 13.902 79.5 4.5 69 4.5C58.5 4.5 49.5 13.902 49.5 25.5V30H88.5V25.5Z" fill="#8C5237"/>
<path d="M85.5 25.5H81V30C81 30.89 81.2639 31.76 81.7584 32.5001C82.2529 33.2401 82.9557 33.8169 83.7779 34.1575C84.6002 34.4981 85.505 34.5872 86.3779 34.4135C87.2508 34.2399 88.0526 33.8113 88.682 33.182C89.3113 32.5526 89.7399 31.7508 89.9135 30.8779C90.0872 30.005 89.9981 29.1002 89.6575 28.2779C89.3169 27.4557 88.7401 26.7529 88.0001 26.2584C87.26 25.7639 86.39 25.5 85.5 25.5Z" fill="#F0C6A4"/>
<path d="M52.5 25.5C51.61 25.5 50.74 25.7639 49.9999 26.2584C49.2599 26.7529 48.6831 27.4557 48.3425 28.2779C48.002 29.1002 47.9128 30.005 48.0865 30.8779C48.2601 31.7508 48.6887 32.5526 49.318 33.182C49.9474 33.8113 50.7492 34.2399 51.6221 34.4135C52.495 34.5872 53.3998 34.4981 54.2221 34.1575C55.0443 33.8169 55.7472 33.2401 56.2416 32.5001C56.7361 31.76 57 30.89 57 30V25.5H52.5Z" fill="#F0C6A4"/>
<path d="M84 66C83.6022 66 83.2206 66.158 82.9393 66.4393C82.658 66.7206 82.5 67.1022 82.5 67.5V73.5H85.5V67.5C85.5 67.1022 85.342 66.7206 85.0607 66.4393C84.7794 66.158 84.3978 66 84 66Z" fill="#EBA72E"/>
<path d="M54 66C53.6022 66 53.2206 66.158 52.9393 66.4393C52.658 66.7206 52.5 67.1022 52.5 67.5V73.5H55.5V67.5C55.5 67.1022 55.342 66.7206 55.0607 66.4393C54.7794 66.158 54.3978 66 54 66Z" fill="#EBA72E"/>
<path d="M84 25.5V31.5C84 35.4782 82.4196 39.2936 79.6066 42.1066C76.7936 44.9196 72.9782 46.5 69 46.5C65.0218 46.5 61.2064 44.9196 58.3934 42.1066C55.5804 39.2936 54 35.4782 54 31.5V25.5C58.8056 25.2994 73.5 24.0281 73.5 16.5C73.5 16.5 74.8538 24.6938 84 25.5Z" fill="#F7CCA9"/>
<path d="M63 33C63.8284 33 64.5 32.3284 64.5 31.5C64.5 30.6716 63.8284 30 63 30C62.1716 30 61.5 30.6716 61.5 31.5C61.5 32.3284 62.1716 33 63 33Z" fill="#D49073"/>
<path d="M75 33C75.8284 33 76.5 32.3284 76.5 31.5C76.5 30.6716 75.8284 30 75 30C74.1716 30 73.5 30.6716 73.5 31.5C73.5 32.3284 74.1716 33 75 33Z" fill="#D49073"/>
<path d="M69 40.5C65.4803 40.5 63.6375 38.7591 63.4393 38.5607C63.158 38.2794 63 37.8979 63 37.5C63 37.1022 63.158 36.7207 63.4393 36.4394C63.7207 36.158 64.1022 36 64.5 36C64.8979 36 65.2794 36.158 65.5607 36.4394C65.5714 36.45 66.7232 37.5 69 37.5C71.2768 37.5 72.4288 36.45 72.4393 36.4394C72.7207 36.158 73.1022 36 73.5 36C73.8979 36 74.2794 36.158 74.5607 36.4394C74.842 36.7207 75.0001 37.1022 75.0001 37.5C75.0001 37.8979 74.842 38.2794 74.5607 38.5607C74.3625 38.7591 72.5198 40.5 69 40.5Z" fill="#D49073"/>
<path d="M15 25.5V21H10.5C9.60999 21 8.73996 21.2639 7.99994 21.7584C7.25991 22.2529 6.68314 22.9557 6.34254 23.7779C6.00195 24.6002 5.91283 25.505 6.08647 26.3779C6.2601 27.2508 6.68868 28.0526 7.31802 28.682C7.94736 29.3113 8.74918 29.7399 9.6221 29.9135C10.495 30.0872 11.3998 29.9981 12.2221 29.6575C13.0443 29.3169 13.7471 28.7401 14.2416 28.0001C14.7361 27.26 15 26.39 15 25.5Z" fill="#F0C6A4"/>
<path d="M48 58.5V91.5H6V58.5C6 53.7261 7.89642 49.1477 11.2721 45.7721C14.6477 42.3964 19.2261 40.5 24 40.5H30C34.7739 40.5 39.3523 42.3964 42.7279 45.7721C46.1036 49.1477 48 53.7261 48 58.5Z" fill="#DADCDE"/>
<path d="M18 40.5H36V49.5H18V40.5Z" fill="#F0C6A4"/>
<path d="M48 25.5H39V10.5H43.5C44.6935 10.5 45.8381 10.9741 46.682 11.818C47.5259 12.6619 48 13.8065 48 15V25.5Z" fill="#EBA72E"/>
<path d="M12 82.5H42V91.5H12V82.5Z" fill="#6A7073"/>
<path d="M27 49.4411L18 52.5V40.5L27 49.4411Z" fill="#C3C6C7"/>
<path d="M27 49.4411L36 52.5V40.5L27 49.4411Z" fill="#C3C6C7"/>
<path d="M25.5 49.5H28.5V82.5H25.5V49.5Z" fill="#C3C6C7"/>
<path d="M43.5 21.1875H39V25.6875C39 26.5775 39.2639 27.4475 39.7584 28.1876C40.2529 28.9276 40.9557 29.5044 41.7779 29.845C42.6002 30.1856 43.505 30.2747 44.3779 30.101C45.2508 29.9274 46.0527 29.4988 46.682 28.8695C47.3113 28.2401 47.7399 27.4383 47.9135 26.5654C48.0872 25.6925 47.9981 24.7877 47.6575 23.9654C47.3169 23.1432 46.7401 22.4404 46.0001 21.9459C45.2601 21.4514 44.39 21.1875 43.5 21.1875Z" fill="#F0C6A4"/>
<path d="M42 22.5C42 14.2157 35.2843 7.5 27 7.5C18.7157 7.5 12 14.2157 12 22.5V28.5C12 36.7843 18.7157 43.5 27 43.5C35.2843 43.5 42 36.7843 42 28.5V22.5Z" fill="#F7CCA9"/>
<path d="M25.5 82.5H28.5V91.5H25.5V82.5Z" fill="#4F5659"/>
<path d="M18 27C18.8284 27 19.5 26.3284 19.5 25.5C19.5 24.6716 18.8284 24 18 24C17.1716 24 16.5 24.6716 16.5 25.5C16.5 26.3284 17.1716 27 18 27Z" fill="#D49073"/>
<path d="M36 27C36.8284 27 37.5 26.3284 37.5 25.5C37.5 24.6716 36.8284 24 36 24C35.1716 24 34.5 24.6716 34.5 25.5C34.5 26.3284 35.1716 27 36 27Z" fill="#D49073"/>
<path d="M27 37.5C23.4804 37.5 21.6375 35.7591 21.4393 35.5607C21.3 35.4214 21.1895 35.2561 21.1142 35.0741C21.0388 34.8921 21 34.697 21 34.5C21 34.3031 21.0388 34.108 21.1142 33.926C21.1895 33.744 21.3 33.5786 21.4393 33.4394C21.7206 33.158 22.1022 33 22.5 33C22.697 33 22.8921 33.0388 23.074 33.1142C23.256 33.1896 23.4214 33.3001 23.5607 33.4394C23.5714 33.45 24.7232 34.5 27 34.5C29.2768 34.5 30.4286 33.45 30.4393 33.4394C30.7206 33.158 31.1022 33 31.5 33C31.8978 33 32.2794 33.158 32.5607 33.4394C32.842 33.7207 33 34.1022 33 34.5C33 34.8979 32.842 35.2794 32.5607 35.5607C32.3625 35.7591 30.5196 37.5 27 37.5Z" fill="#D49073"/>
<path d="M6 85.5H12V91.5H6V85.5Z" fill="#C3C6C7"/>
<path d="M42 85.5H48V91.5H42V85.5Z" fill="#C3C6C7"/>
<path d="M37.5 31.5H34.5C32.9087 31.5 31.3826 30.8679 30.2574 29.7426C29.1321 28.6174 28.5 27.0913 28.5 25.5C28.5 23.9087 29.1321 22.3826 30.2574 21.2574C31.3826 20.1321 32.9087 19.5 34.5 19.5H37.5C39.0913 19.5 40.6174 20.1321 41.7426 21.2574C42.8679 22.3826 43.5 23.9087 43.5 25.5C43.5 27.0913 42.8679 28.6174 41.7426 29.7426C40.6174 30.8679 39.0913 31.5 37.5 31.5ZM34.5 22.5C33.7044 22.5 32.9413 22.8161 32.3787 23.3787C31.8161 23.9413 31.5 24.7044 31.5 25.5C31.5 26.2956 31.8161 27.0587 32.3787 27.6213C32.9413 28.1839 33.7044 28.5 34.5 28.5H37.5C38.2956 28.5 39.0587 28.1839 39.6213 27.6213C40.1839 27.0587 40.5 26.2956 40.5 25.5C40.5 24.7044 40.1839 23.9413 39.6213 23.3787C39.0587 22.8161 38.2956 22.5 37.5 22.5H34.5Z" fill="#FBE9D8"/>
<path d="M40.5 63C40.1022 63 39.7206 63.158 39.4393 63.4393C39.158 63.7206 39 64.1022 39 64.5V82.5H42V64.5C42 64.1022 41.842 63.7206 41.5607 63.4393C41.2794 63.158 40.8978 63 40.5 63Z" fill="#C3C6C7"/>
<path d="M13.5 63C13.1022 63 12.7206 63.158 12.4393 63.4393C12.158 63.7206 12 64.1022 12 64.5V82.5H15V64.5C15 64.1022 14.842 63.7206 14.5607 63.4393C14.2794 63.158 13.8978 63 13.5 63Z" fill="#C3C6C7"/>
<path d="M18 4.5C14.8174 4.5 11.7652 5.76428 9.51472 8.01472C7.26428 10.2652 6 13.3174 6 16.5V25.5C6.0003 24.3066 6.4745 23.1622 7.31835 22.3183C8.1622 21.4745 9.30662 21.0003 10.5 21H12C14.4853 21 16.5 17.6421 16.5 13.5H40.5C40.5 13.5 46.5 13.5 46.5 4.5H18Z" fill="#F7B030"/>
<path d="M19.5 31.5H16.5C14.9087 31.5 13.3826 30.8679 12.2574 29.7426C11.1321 28.6174 10.5 27.0913 10.5 25.5C10.5 23.9087 11.1321 22.3826 12.2574 21.2574C13.3826 20.1321 14.9087 19.5 16.5 19.5H19.5C21.0913 19.5 22.6174 20.1321 23.7426 21.2574C24.8679 22.3826 25.5 23.9087 25.5 25.5C25.5 27.0913 24.8679 28.6174 23.7426 29.7426C22.6174 30.8679 21.0913 31.5 19.5 31.5ZM16.5 22.5C15.7044 22.5 14.9413 22.8161 14.3787 23.3787C13.8161 23.9413 13.5 24.7044 13.5 25.5C13.5 26.2956 13.8161 27.0587 14.3787 27.6213C14.9413 28.1839 15.7044 28.5 16.5 28.5H19.5C20.2956 28.5 21.0587 28.1839 21.6213 27.6213C22.1839 27.0587 22.5 26.2956 22.5 25.5C22.5 24.7044 22.1839 23.9413 21.6213 23.3787C21.0587 22.8161 20.2956 22.5 19.5 22.5H16.5Z" fill="#FBE9D8"/>
<path d="M28.5969 24.525C28.586 24.5034 28.3187 24 27 24C25.9402 24 25.4985 24.3244 25.4132 24.4961L22.5502 23.6149C22.8082 22.6436 24.0356 21 27 21C29.9002 21 31.1542 22.6174 31.4379 23.5731L28.5969 24.525Z" fill="#FBE9D8"/>
</svg>
