<svg width="96" height="96" viewBox="0 0 96 96" fill="none" xmlns="http://www.w3.org/2000/svg">
<g clip-path="url(#clip0)">
<path d="M76.5214 94.1924H19.4786L17.6711 92.3849V79.8485C17.6711 72.9815 20.6304 66.8058 25.3432 62.5269H70.6567C75.3695 66.8058 78.3289 72.9815 78.3289 79.8485V92.3849L76.5214 94.1924Z" fill="#86DCFF"/>
<path d="M18.6754 95.9999H28.2412L29.6475 94.3124L31.0537 95.9999H64.9462L66.3525 94.3124L67.7587 95.9999H77.3246C77.8792 95.9999 78.3289 95.5503 78.3289 94.9957V92.3849H17.6711V94.9958C17.6711 95.5503 18.1207 95.9999 18.6754 95.9999Z" fill="#56CAED"/>
<path d="M48 76.2296L63.1202 59.5921L63.0202 57.8939C60.5017 56.9662 57.78 56.459 54.9395 56.459H41.0604C38.2464 56.459 35.549 56.9568 33.0502 57.8681L33.129 59.8664L48 76.2296Z" fill="#E4EEF9"/>
<path d="M32.9801 57.8949C32.172 58.1926 31.3845 58.5328 30.621 58.9141L31.2427 61.5873L48 79.8446L64.9277 61.3996L65.379 58.9141C64.6155 58.5328 63.828 58.1925 63.0199 57.8949L48.743 73.6042C48.3446 74.0426 47.6552 74.0426 47.2567 73.6042L32.9801 57.8949Z" fill="#D5E0F2"/>
<path d="M48 76.2295C48 76.2295 50.6019 73.3664 52.254 71.5486L52.6265 69.3312L51.5186 63.2584L48 61.4506L44.4814 63.2581L43.3734 69.3308L43.746 71.5482L48 76.2295Z" fill="#FF5876"/>
<path d="M51.5186 63.2583H44.4814L42.9465 56.4592H53.0535L51.5186 63.2583Z" fill="#E6485D"/>
<path d="M53.176 72.3416L52.6266 69.3311L48.7431 73.6042C48.3446 74.0426 47.6552 74.0426 47.2568 73.6042L43.3733 69.3311L42.8239 72.3416L48 81.6521L53.176 72.3416Z" fill="#E6485D"/>
<path d="M30.621 58.9143C29.4289 59.51 28.2943 60.2039 27.2285 60.9864L27.4592 63.0477L45.7704 83.1965C46.9657 84.5118 49.0339 84.5118 50.2292 83.1965L68.7388 62.8295L68.771 60.9864C67.7053 60.2041 66.5709 59.51 65.3786 58.9143L48.6937 77.2736C48.3217 77.6829 47.678 77.6829 47.3062 77.2736L30.621 58.9143Z" fill="#FFCF4D"/>
<path d="M50.2294 81.3888C49.034 82.7041 46.9659 82.7041 45.7706 81.3888L27.2289 60.9868C26.5736 61.4677 25.944 61.9816 25.3432 62.5271L45.7706 85.0038C46.9659 86.3191 49.034 86.3191 50.2294 85.0038L70.6565 62.5269C70.0558 61.9814 69.4262 61.4677 68.7709 60.9866L50.2294 81.3888Z" fill="#FFB629"/>
<path d="M30.8242 36.5407L29.0167 31.6753C28.8015 31.6532 28.5832 31.6417 28.3622 31.6417C25.5217 31.6417 23.1184 33.5126 22.317 36.0892C22.1321 36.6838 22.3082 42.4938 28.3622 42.4938L29.0651 40.6464L30.8242 36.5407Z" fill="#FFC4AD"/>
<path d="M28.3622 40.6861C25.4946 40.6861 23.0738 38.7787 22.2958 36.1638C22.1254 36.7368 22.0324 37.343 22.0324 37.9713C22.0324 41.4671 24.8663 44.3011 28.3622 44.3011C28.8045 44.3011 29.2359 44.2554 29.6528 44.1691L31.0963 42.4936L29.0666 40.646C28.8353 40.6719 28.6003 40.6861 28.3622 40.6861Z" fill="#FFB69F"/>
<path d="M65.1757 36.5407L66.9832 31.6753C67.1985 31.6532 67.4167 31.6417 67.6378 31.6417C70.4782 31.6417 72.8816 33.5126 73.683 36.0892C73.8678 36.6838 73.6918 42.4938 67.6378 42.4938L66.9348 40.6464L65.1757 36.5407Z" fill="#FFC4AD"/>
<path d="M67.6378 40.6861C70.5054 40.6861 72.9262 38.7787 73.7042 36.1638C73.8746 36.7368 73.9676 37.343 73.9676 37.9713C73.9676 41.4671 71.1337 44.3011 67.6378 44.3011C67.1955 44.3011 66.7641 44.2554 66.3472 44.1691L64.9037 42.4936L66.9334 40.646C67.1647 40.6719 67.3997 40.6861 67.6378 40.6861Z" fill="#FFB69F"/>
<path d="M29.0168 12.1855V35.6684V37.4759C29.0168 47.9602 37.5159 56.4592 48 56.4592C58.4841 56.4592 66.9833 47.9602 66.9833 37.4759V35.6684V12.1855H29.0168Z" fill="#FFE0CC"/>
<path d="M48 54.6515C37.5159 54.6515 29.0168 46.1525 29.0168 35.6682V39.2832C29.0168 49.7675 37.5159 58.2665 48 58.2665C58.4841 58.2665 66.9833 49.7675 66.9833 39.2832V35.6682C66.9833 46.1525 58.4841 54.6515 48 54.6515Z" fill="#FFCEB3"/>
<path d="M66.1086 25.6211C62.7058 22.7195 59.7311 19.5084 59.7311 19.5084C54.3109 23.8651 50.2374 24.2476 50.2374 24.2476L46.2536 20.3602C39.4796 25.463 31.6575 26.4706 29.5251 26.4176C29.2009 26.4095 28.8799 26.3566 28.5692 26.2616C23.6001 24.7406 21.7226 21.7272 21.7226 21.7272C21.7226 21.7272 21.1419 20.4074 22.0586 20.2312C26.8569 19.3081 28.5437 16.0201 28.5437 16.0201C23.2029 16.1816 21.4776 12.2221 20.9332 10.0454C20.7654 9.37455 21.3021 8.74249 21.9915 8.79668C31.9659 9.58174 34.3867 3.43474 43.7661 0.664616C53.5402 -2.22213 60.4605 5.23324 60.4605 5.23324C60.4605 5.23324 70.3663 4.2768 71.2162 14.3752C72.0287 24.0271 66.1086 25.6211 66.1086 25.6211Z" fill="#2D4456"/>
<path d="M66.2827 23.8725C63.8882 22.1788 61.6907 19.0445 60.5501 17.2498C60.1743 16.6582 59.331 16.6346 58.902 17.1886C54.798 22.4889 46.2536 20.3602 46.2536 20.3602C46.2536 20.3602 48.3519 22.9295 48.3474 25.9475C48.3465 26.5966 48.9407 27.0798 49.5735 26.9356C51.9851 26.3859 57.0332 24.6541 59.7311 19.5086C59.7311 19.5086 62.7973 25.0211 66.2807 27.4863C66.6898 27.7758 67.2495 27.7196 67.592 27.354C68.8963 25.9616 71.7902 21.99 71.2308 14.5929C70.814 19.6968 68.6683 22.5883 67.5945 23.736C67.2515 24.1023 66.6926 24.1623 66.2827 23.8725Z" fill="#253847"/>
<path d="M46.4659 19.1693C46.6022 18.2257 45.4712 17.6369 44.7855 18.2993C38.6927 24.1857 31.4964 24.6592 29.5251 24.61C29.2009 24.602 28.8799 24.5491 28.5692 24.454C26.1566 23.7157 23.823 21.9014 22.0584 20.2297C21.7086 20.297 21.3424 20.3519 20.9591 20.3922C20.1414 20.4779 19.7629 21.454 20.3154 22.0628C22.0524 23.9767 25.2373 27.0492 28.5692 28.069C28.8801 28.1641 29.2009 28.217 29.5251 28.225C31.6575 28.2781 39.9037 27.7197 46.2536 20.3602C46.3468 19.9094 46.416 19.5147 46.4659 19.1693Z" fill="#253847"/>
<path d="M31.0537 82.1212V92.385L29.6475 94.1925L28.2412 92.385V82.1212C28.2412 81.3431 28.8712 80.715 29.6475 80.715C30.4256 80.715 31.0537 81.3431 31.0537 82.1212Z" fill="#4EA1F4"/>
<path d="M28.2412 92.3849H31.0537V95.9999H28.2412V92.3849Z" fill="#3292E0"/>
<path d="M67.7587 82.1212V92.385L66.3525 94.1925L64.9462 92.385V82.1212C64.9462 81.3431 65.5762 80.715 66.3525 80.715C67.1306 80.715 67.7587 81.3431 67.7587 82.1212Z" fill="#4EA1F4"/>
<path d="M64.9462 92.3849H67.7587V95.9999H64.9462V92.3849Z" fill="#3292E0"/>
<path d="M48 48.9596C53.3546 48.9596 54.9735 45.1965 55.0441 45.0257C55.0443 45.0253 55.0445 45.0247 55.0447 45.0245C55.4713 44.066 54.713 42.9093 53.6565 42.933C53.0287 42.933 52.4911 43.3172 52.2648 43.863C52.1887 44.0242 51.2109 45.9472 48.0001 45.9472C44.7901 45.9472 43.8121 44.0253 43.7355 43.8632C43.5091 43.3173 42.9716 42.9332 42.3438 42.9332C41.2873 42.9093 40.529 44.0664 40.9556 45.0247C40.9558 45.0249 40.956 45.0257 40.9561 45.0258C41.0265 45.1965 42.6453 48.9596 48 48.9596Z" fill="#FF5876"/>
<path d="M38.8014 31.9427C37.9695 31.9427 37.2952 32.6172 37.2952 33.4489V37.7048C37.2952 38.5367 37.9697 39.211 38.8014 39.211C39.6334 39.211 40.3076 38.5366 40.3076 37.7048V33.4489C40.3076 32.6172 39.6334 31.9427 38.8014 31.9427Z" fill="#2D4456"/>
<path d="M57.1985 39.2112C58.0305 39.2112 58.7049 38.5368 58.7049 37.7051V33.4492C58.7049 32.6172 58.0305 31.943 57.1985 31.943C56.3666 31.943 55.6924 32.6174 55.6924 33.4492V37.7051C55.6924 38.5368 56.3666 39.2112 57.1985 39.2112Z" fill="#2D4456"/>
</g>
<defs>
<clipPath id="clip0">
<rect width="96" height="96" fill="white"/>
</clipPath>
</defs>
</svg>
