<svg width="96" height="96" viewBox="0 0 96 96" fill="none" xmlns="http://www.w3.org/2000/svg">
<path d="M13.5 37.5V30C13.5 23.237 16.1866 16.751 20.9688 11.9688C25.751 7.1866 32.237 4.5 39 4.5C45.763 4.5 52.249 7.1866 57.0312 11.9688C61.8134 16.751 64.5 23.237 64.5 30V37.5H13.5Z" fill="#734B39"/>
<path d="M58.5 43.5C61.8137 43.5 64.5 40.8137 64.5 37.5C64.5 34.1863 61.8137 31.5 58.5 31.5C55.1863 31.5 52.5 34.1863 52.5 37.5C52.5 40.8137 55.1863 43.5 58.5 43.5Z" fill="#F0C6A4"/>
<path d="M19.5 43.5C22.8137 43.5 25.5 40.8137 25.5 37.5C25.5 34.1863 22.8137 31.5 19.5 31.5C16.1863 31.5 13.5 34.1863 13.5 37.5C13.5 40.8137 16.1863 43.5 19.5 43.5Z" fill="#F0C6A4"/>
<path d="M19.5 30H33C39.6274 30 45 23.9559 45 16.5C48.5804 16.5 52.0142 17.9223 54.5459 20.4541C57.0777 22.9858 58.5 26.4196 58.5 30V36C58.5 41.1717 56.4455 46.1316 52.7886 49.7886C49.1316 53.4455 44.1717 55.5 39 55.5C33.8283 55.5 28.8684 53.4455 25.2114 49.7886C21.5545 46.1316 19.5 41.1717 19.5 36V30Z" fill="#F7CCA9"/>
<path d="M67.5 61.5V91.5H10.5V61.5C10.5 59.9087 11.1321 58.3826 12.2574 57.2574C13.3826 56.1321 14.9087 55.5 16.5 55.5H61.5C63.0913 55.5 64.6174 56.1321 65.7426 57.2574C66.8679 58.3826 67.5 59.9087 67.5 61.5Z" fill="#E9EEF2"/>
<path d="M67.5 64.5H88.5V91.5H67.5V64.5Z" fill="#EB423F"/>
<path d="M81 72H75C74.6022 72 74.2206 71.842 73.9393 71.5607C73.658 71.2794 73.5 70.8978 73.5 70.5C73.5 70.1022 73.658 69.7206 73.9393 69.4393C74.2206 69.158 74.6022 69 75 69H81C81.3978 69 81.7794 69.158 82.0607 69.4393C82.342 69.7206 82.5 70.1022 82.5 70.5C82.5 70.8978 82.342 71.2794 82.0607 71.5607C81.7794 71.842 81.3978 72 81 72Z" fill="#FFB632"/>
<path d="M82.5 78H73.6875C73.2897 78 72.9081 77.842 72.6268 77.5607C72.3455 77.2794 72.1875 76.8978 72.1875 76.5C72.1875 76.1022 72.3455 75.7206 72.6268 75.4393C72.9081 75.158 73.2897 75 73.6875 75H82.5C82.8978 75 83.2794 75.158 83.5607 75.4393C83.842 75.7206 84 76.1022 84 76.5C84 76.8978 83.842 77.2794 83.5607 77.5607C83.2794 77.842 82.8978 78 82.5 78Z" fill="#FFB632"/>
<path d="M91.5 85.5V88.5C91.5 89.2956 91.1839 90.0587 90.6213 90.6213C90.0587 91.1839 89.2956 91.5 88.5 91.5H82.5V82.5H88.5C89.2956 82.5 90.0587 82.8161 90.6213 83.3787C91.1839 83.9413 91.5 84.7044 91.5 85.5Z" fill="#F7CCA9"/>
<path d="M19.5011 84.0001C19.2223 84.0003 18.949 83.9227 18.7119 83.7762C18.4747 83.6297 18.283 83.42 18.1584 83.1706L3.15843 53.1706C3.06851 52.9942 3.01439 52.8018 2.99919 52.6044C2.98399 52.407 3.00802 52.2086 3.06988 52.0205C3.13174 51.8325 3.23021 51.6585 3.35962 51.5087C3.48903 51.3589 3.64681 51.2362 3.82387 51.1477C4.00093 51.0591 4.19377 51.0065 4.39127 50.9928C4.58876 50.9792 4.78701 51.0047 4.97457 51.0681C5.16214 51.1314 5.33531 51.2312 5.48412 51.3618C5.63292 51.4924 5.7544 51.6511 5.84156 51.8288L20.8416 81.8288C20.956 82.0575 21.01 82.3115 20.9986 82.5669C20.9873 82.8223 20.9108 83.0705 20.7765 83.2881C20.6422 83.5056 20.4545 83.6852 20.2313 83.8098C20.0081 83.9344 19.7568 83.9999 19.5011 84.0001Z" fill="#C3C6C7"/>
<path d="M46.5 64.5H67.5V91.5H46.5V64.5Z" fill="#D13330"/>
<path d="M16.5 88.5V85.5C16.5 84.7044 16.8161 83.9413 17.3787 83.3787C17.9413 82.8161 18.7044 82.5 19.5 82.5H25.5V91.5H19.5C18.7044 91.5 17.9413 91.1839 17.3787 90.6213C16.8161 90.0587 16.5 89.2956 16.5 88.5Z" fill="#F7CCA9"/>
<path d="M39 49.4922C37.2062 49.4922 35.412 48.9109 33.6679 47.7484C33.5028 47.6396 33.3609 47.4993 33.2503 47.3355C33.1397 47.1717 33.0625 46.9877 33.0232 46.794C32.984 46.6002 32.9834 46.4007 33.0215 46.2067C33.0596 46.0128 33.1357 45.8283 33.2453 45.6638C33.355 45.4994 33.4961 45.3582 33.6604 45.2485C33.8248 45.1387 34.0093 45.0625 34.2032 45.0243C34.3971 44.9861 34.5967 44.9865 34.7904 45.0257C34.9842 45.0648 35.1683 45.1419 35.3321 45.2524C37.8343 46.9212 40.1657 46.9212 42.6679 45.2524C42.9989 45.0342 43.4028 44.956 43.7913 45.0347C44.1799 45.1135 44.5214 45.3429 44.7414 45.6727C44.9613 46.0026 45.0417 46.406 44.965 46.795C44.8883 47.1839 44.6608 47.5267 44.3321 47.7484C42.588 48.9109 40.7938 49.4922 39 49.4922Z" fill="#452D23"/>
<path d="M37.5 55.5H40.5V91.5H37.5V55.5Z" fill="#E1E3E6"/>
<path d="M34.5 91.5L36 64.5H42L43.5 91.5H39H34.5Z" fill="#4F5659"/>
<path d="M36 55.5H42V64.5H36V55.5Z" fill="#606669"/>
<path d="M40.5 55.5L28.5 64.5V55.5H40.5Z" fill="#DADCDE"/>
<path d="M37.5 55.5L49.5 64.5V55.5H37.5Z" fill="#DADCDE"/>
<path d="M31.5 28.5C29.7718 28.5023 28.0973 29.1003 26.7586 30.1932C25.4199 31.2862 24.4989 32.8072 24.1509 34.5H19.5V37.5H24.1509C24.4348 38.8904 25.1072 40.1718 26.0902 41.1953C27.0732 42.2187 28.3264 42.9423 29.7043 43.282C31.0821 43.6217 32.528 43.5635 33.8741 43.1141C35.2202 42.6648 36.4111 41.8428 37.3087 40.7437C38.2063 39.6445 38.7735 38.3132 38.9447 36.9045C39.1158 35.4957 38.8838 34.0674 38.2755 32.7853C37.6672 31.5031 36.7077 30.4199 35.5084 29.6614C34.309 28.9028 32.9191 28.5001 31.5 28.5ZM31.5 40.5C30.61 40.5 29.74 40.2361 28.9999 39.7416C28.2599 39.2472 27.6831 38.5443 27.3425 37.7221C27.002 36.8998 26.9128 35.995 27.0865 35.1221C27.2601 34.2492 27.6887 33.4474 28.318 32.818C28.9474 32.1887 29.7492 31.7601 30.6221 31.5865C31.495 31.4128 32.3998 31.5019 33.2221 31.8425C34.0443 32.1831 34.7472 32.7599 35.2416 33.4999C35.7361 34.24 36 35.11 36 36C35.9986 37.1931 35.5241 38.3368 34.6805 39.1804C33.8368 40.0241 32.6931 40.4986 31.5 40.5Z" fill="#4F5659"/>
<path d="M31.5 37.5C32.3284 37.5 33 36.8284 33 36C33 35.1716 32.3284 34.5 31.5 34.5C30.6716 34.5 30 35.1716 30 36C30 36.8284 30.6716 37.5 31.5 37.5Z" fill="#452D23"/>
<path d="M58.5 34.5H53.85C53.4783 32.679 52.4436 31.0608 50.9466 29.9592C49.4496 28.8577 47.5969 28.3512 45.7477 28.538C43.8985 28.7248 42.1845 29.5916 40.9381 30.9703C39.6916 32.349 39.0015 34.1414 39.0015 36C39.0015 37.8586 39.6916 39.651 40.9381 41.0297C42.1845 42.4084 43.8985 43.2752 45.7477 43.462C47.5969 43.6488 49.4496 43.1424 50.9466 42.0408C52.4436 40.9392 53.4783 39.3211 53.85 37.5H58.5V34.5ZM46.5 40.5C45.61 40.5 44.74 40.2361 43.9999 39.7416C43.2599 39.2472 42.6831 38.5444 42.3425 37.7221C42.0019 36.8998 41.9128 35.995 42.0865 35.1221C42.2601 34.2492 42.6887 33.4474 43.318 32.818C43.9474 32.1887 44.7492 31.7601 45.6221 31.5865C46.495 31.4128 47.3998 31.502 48.2221 31.8426C49.0443 32.1832 49.7471 32.7599 50.2416 33.5C50.7361 34.24 51 35.11 51 36C50.9986 37.1931 50.5241 38.3368 49.6804 39.1805C48.8368 40.0241 47.693 40.4986 46.5 40.5Z" fill="#4F5659"/>
<path d="M46.5 37.5C47.3284 37.5 48 36.8284 48 36C48 35.1716 47.3284 34.5 46.5 34.5C45.6716 34.5 45 35.1716 45 36C45 36.8284 45.6716 37.5 46.5 37.5Z" fill="#452D23"/>
</svg>
