<svg width="100%" height="100%" viewBox="0 0 142 142" fill="none" xmlns="http://www.w3.org/2000/svg">
<rect width="142" height="142" rx="71" fill="#192391" fill-opacity="0.05"/>
<path d="M120.797 81.9062C120.797 109.684 98.2782 121.797 70.5 121.797C42.7218 121.797 20.2031 109.684 20.2031 81.9062C20.2031 54.1281 42.7218 21.2031 70.5 21.2031C98.2782 21.2031 120.797 54.1281 120.797 81.9062Z" fill="#119136" fill-opacity="0.1"/>
<path d="M70.5 114.859C43.889 114.859 22.1194 103.733 20.3356 78.3777C20.2573 79.5603 20.2031 80.739 20.2031 81.9063C20.2031 109.684 42.7218 121.797 70.5 121.797C98.2782 121.797 120.797 109.684 120.797 81.9063C120.797 80.739 120.743 79.5603 120.664 78.3777C118.881 103.733 97.1109 114.859 70.5 114.859Z" fill="#119136" fill-opacity="0.5"/>
<path d="M46.2188 66.2969V69.7656C46.2233 73.4441 47.6866 76.9706 50.2876 79.5717C52.8887 82.1728 56.4153 83.6361 60.0938 83.6406H80.9062C84.5847 83.6361 88.1113 82.1728 90.7124 79.5717C93.3134 76.9706 94.7767 73.4441 94.7812 69.7656V66.2969H46.2188Z" fill="#EF5267"/>
<path d="M94.7812 66.2969H46.2188V69.7656C46.2194 71.5495 46.5654 73.3164 47.2377 74.9688H93.7623C94.4346 73.3164 94.7806 71.5495 94.7812 69.7656V66.2969Z" fill="white"/>
<path d="M70.5 19.4688C41.6779 19.4688 18.4688 53.6262 18.4688 81.9062C18.4688 107.971 37.9195 123.531 70.5 123.531C103.08 123.531 122.531 107.971 122.531 81.9062C122.531 53.6262 99.3221 19.4688 70.5 19.4688ZM70.5 120.062C40.0925 120.062 21.9375 105.797 21.9375 81.9062C21.9375 55.1969 43.6003 22.9375 70.5 22.9375C97.3997 22.9375 119.062 55.1969 119.062 81.9062C119.062 105.797 100.907 120.062 70.5 120.062Z" fill="#192391"/>
<path d="M50.034 60.4C50.1704 60.5823 50.3415 60.7359 50.5373 60.8521C50.7332 60.9682 50.9501 61.0446 51.1755 61.0768C51.401 61.109 51.6306 61.0965 51.8511 61.0399C52.0717 60.9832 52.279 60.8837 52.461 60.7468L59.3985 55.5437C59.6142 55.3824 59.7893 55.173 59.91 54.9321C60.0306 54.6913 60.0934 54.4256 60.0934 54.1562C60.0934 53.8868 60.0306 53.6212 59.91 53.3803C59.7893 53.1395 59.6142 52.9301 59.3985 52.7687L52.461 47.5656C52.2793 47.4232 52.0709 47.3186 51.8482 47.2578C51.6255 47.1971 51.3929 47.1814 51.164 47.2117C50.9352 47.2419 50.7147 47.3176 50.5154 47.4342C50.3162 47.5509 50.1422 47.7061 50.0038 47.8908C49.8653 48.0756 49.7651 48.2861 49.7091 48.51C49.6531 48.734 49.6423 48.9669 49.6774 49.195C49.7126 49.4232 49.7929 49.642 49.9137 49.8388C50.0346 50.0355 50.1934 50.2061 50.3811 50.3406L55.4678 54.1562L50.3808 57.9718C50.1983 58.1082 50.0444 58.2793 49.9282 58.4753C49.8119 58.6713 49.7354 58.8883 49.7032 59.1139C49.671 59.3395 49.6836 59.5692 49.7404 59.7899C49.7971 60.0106 49.8969 60.2179 50.034 60.4Z" fill="#192391"/>
<path d="M88.5376 60.7469C88.9063 61.0112 89.3638 61.1206 89.8121 61.0515C90.2604 60.9825 90.6639 60.7405 90.9359 60.3776C91.208 60.0146 91.327 59.5595 91.2675 59.1098C91.208 58.6601 90.9747 58.2516 90.6175 57.9719L85.5319 54.1563L90.6188 50.3407C90.976 50.061 91.2093 49.6525 91.2688 49.2028C91.3283 48.7531 91.2093 48.298 90.9372 47.935C90.6652 47.572 90.2617 47.3301 89.8134 47.2611C89.3651 47.192 88.9075 47.3014 88.5389 47.5657L81.6031 52.7688C81.3874 52.9301 81.2123 53.1395 81.0916 53.3804C80.971 53.6213 80.9082 53.8869 80.9082 54.1563C80.9082 54.4257 80.971 54.6913 81.0916 54.9322C81.2123 55.173 81.3874 55.3825 81.6031 55.5438L88.5376 60.7469Z" fill="#192391"/>
<path d="M94.7812 64.5625H46.2188C45.7588 64.5625 45.3176 64.7452 44.9924 65.0705C44.6671 65.3957 44.4844 65.8369 44.4844 66.2969V69.7656C44.4889 73.9041 46.1349 77.8718 49.0613 80.7981C51.9876 83.7245 55.9553 85.3705 60.0938 85.375H80.9062C85.0447 85.3705 89.0124 83.7245 91.9387 80.7981C94.8651 77.8718 96.5111 73.9041 96.5156 69.7656V66.2969C96.5156 65.8369 96.3329 65.3957 96.0076 65.0705C95.6824 64.7452 95.2412 64.5625 94.7812 64.5625ZM47.9531 68.0312H93.0469V69.7656C93.0459 70.9406 92.8736 72.1091 92.5354 73.2344H48.4645C48.1264 72.1091 47.9541 70.9406 47.9531 69.7656V68.0312ZM80.9062 81.9062H60.0938C58.139 81.9048 56.2135 81.4309 54.4813 80.525C52.7492 79.619 51.2616 78.3078 50.1454 76.7031H90.8548C89.7385 78.3078 88.2509 79.619 86.5187 80.525C84.7865 81.4309 82.8611 81.9048 80.9062 81.9062Z" fill="#192391"/>
</svg>
