<svg width="96" height="96" viewBox="0 0 96 96" fill="none" xmlns="http://www.w3.org/2000/svg">
<path d="M55.38 51.66L48 91.5H30L22.62 51.66C22.905 51.585 23.19 51.495 23.475 51.435L25.5 51L31.5 49.5L39 54L46.5 49.5L52.5 51L54.525 51.435C54.81 51.495 55.095 51.585 55.38 51.66Z" fill="#9BC9FF"/>
<path d="M53.0835 51.126L45 91.5H48L55.38 51.66C55.095 51.585 54.81 51.495 54.525 51.435L53.0835 51.126Z" fill="#8CB5E5"/>
<path d="M24.9165 51.126L33 91.5H30L22.62 51.66C22.905 51.585 23.19 51.495 23.475 51.435L24.9165 51.126Z" fill="#8CB5E5"/>
<path d="M22.6215 51.6555C17.4444 52.9607 12.8508 55.956 9.56837 60.1669C6.28592 64.3777 4.50228 69.5634 4.5 74.9025V91.5H30L22.6215 51.6555Z" fill="#58595B"/>
<path d="M58.5 88.4999V64.4999C58.5 63.7043 58.8161 62.9412 59.3787 62.3786C59.9413 61.816 60.7044 61.4999 61.5 61.4999H63V55.0649C60.6803 53.4881 58.0993 52.3353 55.377 51.6599L48 91.4999H61.5C60.7044 91.4999 59.9413 91.1838 59.3787 90.6212C58.8161 90.0586 58.5 89.2956 58.5 88.4999Z" fill="#58595B"/>
<path d="M46.5 44.4765C48.7795 43.1625 50.6727 41.2715 51.9893 38.9935C53.3059 36.7156 53.9994 34.1311 54 31.5V25.5H53.883C52.9837 25.4999 52.0959 25.2976 51.2853 24.9082C50.4747 24.5187 49.7621 23.952 49.2 23.25L45 18L42.6 21C41.4754 22.4046 40.0493 23.5384 38.4273 24.3173C36.8053 25.0962 35.0289 25.5005 33.2295 25.5H24V31.5C24.0006 34.1311 24.6941 36.7156 26.0107 38.9935C27.3273 41.2715 29.2205 43.1625 31.5 44.4765C33.7773 45.8017 36.3651 46.4999 39 46.4999C41.6349 46.4999 44.2227 45.8017 46.5 44.4765Z" fill="#FFBCAB"/>
<path d="M42.7545 59.9985L42.429 56.7435L39 54L35.571 56.7435L35.2455 59.9985L39 61.5L42.7545 59.9985Z" fill="#CCA400"/>
<path d="M39 61.5L35.2455 59.9985L33 82.5L39 88.5L45 82.5L42.7545 59.9985L39 61.5Z" fill="#FFCD00"/>
<path d="M46.5 49.4999V44.4764C44.2227 45.8017 41.6349 46.4999 39 46.4999C36.3651 46.4999 33.7773 45.8017 31.5 44.4764V49.4999L39 54L46.5 49.4999Z" fill="#FF9478"/>
<path d="M46.5 60L52.5 51L46.5 49.5L39 54L46.5 60Z" fill="#2488FF"/>
<path d="M39 54L31.5 49.5L25.5 51L31.5 60L39 54Z" fill="#2488FF"/>
<path d="M42.6 21L45 18L49.2 23.25C49.7621 23.952 50.4747 24.5187 51.2853 24.9082C52.0959 25.2976 52.9837 25.4999 53.883 25.5H57V19.5C57 15.5218 55.4196 11.7064 52.6066 8.8934C49.7936 6.08035 45.9782 4.5 42 4.5H36C32.0218 4.5 28.2064 6.08035 25.3934 8.8934C22.5804 11.7064 21 15.5218 21 19.5V25.5H33.2325C35.0314 25.5 36.8072 25.0956 38.4287 24.3167C40.0501 23.5377 41.4757 22.4042 42.6 21Z" fill="#FF9811"/>
<path d="M88.5 61.5H61.5C59.8431 61.5 58.5 62.8431 58.5 64.5V88.5C58.5 90.1569 59.8431 91.5 61.5 91.5H88.5C90.1569 91.5 91.5 90.1569 91.5 88.5V64.5C91.5 62.8431 90.1569 61.5 88.5 61.5Z" fill="#D80027"/>
<path d="M67.5 61.5V49.5C67.5 47.5109 68.2902 45.6032 69.6967 44.1967C71.1032 42.7902 73.0109 42 75 42C76.9891 42 78.8968 42.7902 80.3033 44.1967C81.7098 45.6032 82.5 47.5109 82.5 49.5V61.5H87V49.5C87 46.3174 85.7357 43.2652 83.4853 41.0147C81.2348 38.7643 78.1826 37.5 75 37.5C71.8174 37.5 68.7652 38.7643 66.5147 41.0147C64.2643 43.2652 63 46.3174 63 49.5V61.5H67.5Z" fill="#FF9811"/>
<path d="M61.05 91.455C61.1986 91.4816 61.3491 91.4966 61.5 91.5H88.5C89.2949 91.4976 90.0566 91.1808 90.6187 90.6187C91.1808 90.0566 91.4976 89.2949 91.5 88.5V64.5C91.5 79.119 77.9715 90.975 61.05 91.455Z" fill="#C20023"/>
<path d="M19.5 72C19.8978 72 20.2794 72.158 20.5607 72.4393C20.842 72.7206 21 73.1022 21 73.5V91.5H18V73.5C18 73.1022 18.158 72.7206 18.4393 72.4393C18.7206 72.158 19.1022 72 19.5 72Z" fill="#414042"/>
<path d="M78 73.5C78.0024 72.9728 77.8658 72.4543 77.604 71.9967C77.3422 71.5391 76.9645 71.1586 76.5088 70.8935C76.0532 70.6283 75.5357 70.488 75.0085 70.4865C74.4813 70.485 73.9631 70.6224 73.5059 70.885C73.0488 71.1475 72.6689 71.5259 72.4045 71.982C72.1401 72.4381 72.0006 72.9558 72 73.483C71.9994 74.0102 72.1378 74.5282 72.4011 74.985C72.6644 75.4417 73.0434 75.8209 73.5 76.0845V85.5C73.5 85.8978 73.658 86.2794 73.9393 86.5607C74.2206 86.842 74.6022 87 75 87C75.3978 87 75.7794 86.842 76.0607 86.5607C76.342 86.2794 76.5 85.8978 76.5 85.5V76.0845C76.9547 75.8231 77.3326 75.4466 77.5959 74.993C77.8592 74.5394 77.9985 74.0245 78 73.5Z" fill="#F1F2F2"/>
</svg>
