<svg width="12" height="12" viewBox="0 0 12 12" fill="none" xmlns="http://www.w3.org/2000/svg">
<path d="M5.69531 11.5312C5.69531 11.7902 5.48547 12 5.22656 12H2.34375C1.30984 12 0.46875 11.1589 0.46875 10.125V4.92188C0.46875 4.66296 0.678589 4.45312 0.9375 4.45312C1.19641 4.45312 1.40625 4.66296 1.40625 4.92188V10.125C1.40625 10.6419 1.82684 11.0625 2.34375 11.0625H5.22656C5.48547 11.0625 5.69531 11.2723 5.69531 11.5312ZM12 1.40625V2.8125C12 3.07141 11.7902 3.28125 11.5312 3.28125V4.80469C11.5312 5.0636 11.3214 5.27344 11.0625 5.27344C10.8036 5.27344 10.5938 5.0636 10.5938 4.80469V3.28125H0.46875C0.209839 3.28125 0 3.07141 0 2.8125V1.40625C0 0.630798 0.630798 0 1.40625 0H10.5938C11.3692 0 12 0.630798 12 1.40625ZM0.9375 2.34375H11.0625V1.40625C11.0625 1.1478 10.8522 0.9375 10.5938 0.9375H1.40625C1.1478 0.9375 0.9375 1.1478 0.9375 1.40625V2.34375ZM7.03125 5.15625C7.29016 5.15625 7.5 4.94641 7.5 4.6875C7.5 4.42859 7.29016 4.21875 7.03125 4.21875H4.92188C4.66296 4.21875 4.45312 4.42859 4.45312 4.6875C4.45312 4.94641 4.66296 5.15625 4.92188 5.15625H7.03125ZM12 8.83594C12 10.5806 10.5806 12 8.83594 12C7.09131 12 5.67188 10.5806 5.67188 8.83594C5.67188 7.09131 7.09131 5.67188 8.83594 5.67188C10.5806 5.67188 12 7.09131 12 8.83594ZM11.0625 8.83594C11.0625 7.60822 10.0637 6.60938 8.83594 6.60938C7.60822 6.60938 6.60938 7.60822 6.60938 8.83594C6.60938 10.0637 7.60822 11.0625 8.83594 11.0625C10.0637 11.0625 11.0625 10.0637 11.0625 8.83594ZM9.8237 7.84827C9.64059 7.66516 9.34378 7.66516 9.16077 7.84827L8.83594 8.173L8.5112 7.84827C8.32809 7.66516 8.03128 7.66516 7.84827 7.84827C7.66516 8.03128 7.66516 8.32809 7.84827 8.51111L8.173 8.83594L7.84818 9.16077C7.66516 9.34378 7.66516 9.64059 7.84818 9.82361C7.93973 9.91516 8.05975 9.96094 8.17969 9.96094C8.29962 9.96094 8.41965 9.91516 8.5112 9.82361L8.83594 9.49887L9.16068 9.82361C9.25223 9.91516 9.37225 9.96094 9.49219 9.96094C9.61212 9.96094 9.73215 9.91516 9.8237 9.82361C10.0067 9.64059 10.0067 9.34378 9.8237 9.16077L9.49887 8.83594L9.8237 8.51111C10.0067 8.32809 10.0067 8.03128 9.8237 7.84827Z" fill="#192391"/>
</svg>
