<svg width="12" height="12" viewBox="0 0 12 12" fill="none" xmlns="http://www.w3.org/2000/svg">
<g clip-path="url(#clip0)">
<path d="M11.2992 0.703266C10.8457 0.24975 10.2428 0 9.60147 0C8.96015 0 8.3572 0.24975 7.90371 0.703242L1.19367 7.4133C1.13658 7.4704 1.09521 7.54127 1.07355 7.61906L0.0196152 11.4056C-0.0258301 11.5689 0.020412 11.744 0.140623 11.8636C0.229685 11.9522 0.349029 12 0.471232 12C0.513936 12 0.557014 11.9941 0.599271 11.9821L4.38576 10.9066C4.54551 10.8612 4.66936 10.7347 4.71126 10.5739C4.75317 10.4132 4.7069 10.2424 4.58965 10.1247L2.20249 7.73032L7.76456 2.16823L9.83311 4.23677L5.57512 8.48316C5.39182 8.66597 5.39142 8.96276 5.57423 9.14606C5.75702 9.32939 6.05386 9.32977 6.23714 9.14698L11.2992 4.09873C11.7527 3.64523 12.0024 3.0423 12.0024 2.40098C12.0024 1.75966 11.7527 1.15673 11.2992 0.703266ZM3.36326 10.2225L1.14682 10.852L1.76756 8.62191L3.36326 10.2225ZM10.6367 3.43535L10.4969 3.57478L8.42749 1.50532L8.56666 1.36615C8.84306 1.08973 9.21056 0.9375 9.60147 0.9375C9.99239 0.9375 10.3599 1.08973 10.6363 1.36617C10.9127 1.64257 11.0649 2.01007 11.0649 2.40098C11.0649 2.7919 10.9127 3.1594 10.6367 3.43535Z" fill="#192391"/>
</g>
<defs>
<clipPath id="clip0">
<rect width="12" height="12" fill="white"/>
</clipPath>
</defs>
</svg>
